Unna-Bold Italic.ufo
<glyph name="numbersign" format="1">
  <advance width="504"/>
  <unicode hex="0023"/>
  <outline>
    <contour>
      <point x="459" y="639" type="line"/>
      <point x="374" y="450" type="line"/>
      <point x="270" y="450" type="line"/>
      <point x="355" y="639" type="line"/>
      <point x="305" y="639" type="line"/>
      <point x="220" y="450" type="line"/>
      <point x="125" y="450" type="line"/>
      <point x="104" y="401" type="line"/>
      <point x="199" y="401" type="line"/>
      <point x="128" y="239" type="line"/>
      <point x="34" y="239" type="line"/>
      <point x="13" y="190" type="line"/>
      <point x="107" y="190" type="line"/>
      <point x="20" y="-9" type="line"/>
      <point x="70" y="-9" type="line"/>
      <point x="157" y="190" type="line"/>
      <point x="261" y="190" type="line"/>
      <point x="174" y="-9" type="line"/>
      <point x="224" y="-9" type="line"/>
      <point x="311" y="190" type="line"/>
      <point x="407" y="190" type="line"/>
      <point x="429" y="239" type="line"/>
      <point x="333" y="239" type="line"/>
      <point x="403" y="401" type="line"/>
      <point x="500" y="401" type="line"/>
      <point x="521" y="450" type="line"/>
      <point x="425" y="450" type="line"/>
      <point x="509" y="639" type="line"/>
    </contour>
    <contour>
      <point x="283" y="239" type="line"/>
      <point x="178" y="239" type="line"/>
      <point x="249" y="401" type="line"/>
      <point x="353" y="401" type="line"/>
    </contour>
  </outline>
</glyph>
<glyph name="quotesingle" format="1">
  <advance width="134"/>
  <unicode hex="0027"/>
  <outline>
    <contour>
      <point x="59" y="563"/>
      <point x="63" y="544"/>
      <point x="69" y="523" type="curve" smooth="yes"/>
      <point x="74" y="501"/>
      <point x="81" y="477"/>
      <point x="81" y="450" type="curve" smooth="yes"/>
      <point x="81" y="444"/>
      <point x="81" y="438"/>
      <point x="80" y="431" type="curve" smooth="yes"/>
      <point x="78" y="417"/>
      <point x="82" y="409"/>
      <point x="95" y="409" type="curve" smooth="yes"/>
      <point x="108" y="409"/>
      <point x="114" y="417"/>
      <point x="116" y="431" type="curve" smooth="yes"/>
      <point x="121" y="465"/>
      <point x="138" y="496"/>
      <point x="153" y="523" type="curve" smooth="yes"/>
      <point x="168" y="552"/>
      <point x="178" y="572"/>
      <point x="178" y="592" type="curve" smooth="yes"/>
      <point x="178" y="622"/>
      <point x="160" y="640"/>
      <point x="127" y="640" type="curve" smooth="yes"/>
      <point x="90" y="640"/>
      <point x="66" y="617"/>
      <point x="61" y="580" type="curve" smooth="yes"/>
    </contour>
  </outline>
</glyph>
<glyph name="hyphen" format="1">
  <advance width="250"/>
  <unicode hex="002D"/>
  <outline>
    <contour>
      <point x="26" y="244" type="line"/>
      <point x="17" y="179" type="line"/>
      <point x="223" y="179" type="line"/>
      <point x="232" y="244" type="line"/>
    </contour>
  </outline>
</glyph>
<glyph name="period" format="1">
  <advance width="284"/>
  <unicode hex="002E"/>
  <outline>
    <contour>
      <point x="19" y="16"/>
      <point x="55" y="-10"/>
      <point x="110" y="-10" type="curve" smooth="yes"/>
      <point x="175" y="-10"/>
      <point x="224" y="24"/>
      <point x="224" y="80" type="curve" smooth="yes"/>
      <point x="224" y="124"/>
      <point x="187" y="151"/>
      <point x="132" y="151" type="curve" smooth="yes"/>
      <point x="68" y="151"/>
      <point x="19" y="116"/>
      <point x="19" y="61" type="curve" smooth="yes"/>
    </contour>
  </outline>
</glyph>
<glyph name="zero" format="1">
  <advance width="540"/>
  <unicode hex="0030"/>
  <outline>
    <contour>
      <point x="22" y="380"/>
      <point x="22" y="231" type="curve" smooth="yes"/>
      <point x="22" y="80"/>
      <point x="106" y="-10"/>
      <point x="239" y="-10" type="curve" smooth="yes"/>
      <point x="461" y="-10"/>
      <point x="542" y="216"/>
      <point x="542" y="362" type="curve" smooth="yes"/>
      <point x="542" y="519"/>
      <point x="454" y="607"/>
      <point x="325" y="607" type="curve" smooth="yes"/>
      <point x="107" y="607"/>
    </contour>
    <contour>
      <point x="206" y="509"/>
      <point x="242" y="573"/>
      <point x="321" y="573" type="curve" smooth="yes"/>
      <point x="377" y="573"/>
      <point x="403" y="545"/>
      <point x="403" y="454" type="curve" smooth="yes"/>
      <point x="403" y="414"/>
      <point x="398" y="363"/>
      <point x="389" y="298" type="curve" smooth="yes"/>
      <point x="359" y="86"/>
      <point x="324" y="27"/>
      <point x="244" y="27" type="curve" smooth="yes"/>
      <point x="188" y="27"/>
      <point x="162" y="54"/>
      <point x="162" y="145" type="curve" smooth="yes"/>
      <point x="162" y="183"/>
      <point x="167" y="234"/>
      <point x="176" y="298" type="curve" smooth="yes"/>
    </contour>
  </outline>
</glyph>
<glyph name="one" format="1">
  <advance width="358"/>
  <unicode hex="0031"/>
  <outline>
    <contour>
      <point x="298" y="618" type="line"/>
      <point x="278" y="604"/>
      <point x="257" y="590"/>
      <point x="234" y="577" type="curve" smooth="yes"/>
      <point x="194" y="555"/>
      <point x="138" y="528"/>
      <point x="73" y="514" type="curve"/>
      <point x="80" y="475" type="line"/>
      <point x="146" y="494" type="line" smooth="yes"/>
      <point x="158" y="499"/>
      <point x="165" y="491"/>
      <point x="163" y="479" type="curve" smooth="yes"/>
      <point x="103" y="53" type="line" smooth="yes"/>
      <point x="101" y="40"/>
      <point x="94" y="33"/>
      <point x="81" y="33" type="curve" smooth="yes"/>
      <point x="25" y="34" type="line"/>
      <point x="21" y="0" type="line"/>
      <point x="307" y="0" type="line"/>
      <point x="311" y="34" type="line"/>
      <point x="256" y="33" type="line" smooth="yes"/>
      <point x="244" y="33"/>
      <point x="239" y="40"/>
      <point x="241" y="53" type="curve" smooth="yes"/>
      <point x="320" y="618" type="line"/>
    </contour>
  </outline>
</glyph>
<glyph name="five" format="1">
  <advance width="485"/>
  <unicode hex="0035"/>
  <outline>
    <contour>
      <point x="478" y="599"/>
      <point x="460" y="597"/>
      <point x="408" y="597" type="curve" smooth="yes"/>
      <point x="118" y="597" type="line"/>
      <point x="60" y="272" type="line"/>
      <point x="91" y="272" type="line"/>
      <point x="109" y="296"/>
      <point x="162" y="319"/>
      <point x="207" y="319" type="curve" smooth="yes"/>
      <point x="276" y="319"/>
      <point x="311" y="287"/>
      <point x="311" y="212" type="curve" smooth="yes"/>
      <point x="311" y="151"/>
      <point x="301" y="26"/>
      <point x="190" y="26" type="curve" smooth="yes"/>
      <point x="159" y="26"/>
      <point x="133" y="39"/>
      <point x="133" y="68" type="curve" smooth="yes"/>
      <point x="133" y="95"/>
      <point x="152" y="108"/>
      <point x="152" y="134" type="curve" smooth="yes"/>
      <point x="152" y="163"/>
      <point x="128" y="183"/>
      <point x="92" y="183" type="curve" smooth="yes"/>
      <point x="49" y="183"/>
      <point x="7" y="154"/>
      <point x="7" y="102" type="curve" smooth="yes"/>
      <point x="7" y="11"/>
      <point x="115" y="-10"/>
      <point x="186" y="-10" type="curve" smooth="yes"/>
      <point x="334" y="-10"/>
      <point x="458" y="76"/>
      <point x="458" y="219" type="curve" smooth="yes"/>
      <point x="458" y="318"/>
      <point x="380" y="372"/>
      <point x="270" y="372" type="curve" smooth="yes"/>
      <point x="194" y="372"/>
      <point x="115" y="341"/>
      <point x="80" y="307" type="curve"/>
      <point x="106" y="307" type="line"/>
      <point x="157" y="574" type="line"/>
      <point x="114" y="491" type="line"/>
      <point x="459" y="491" type="line"/>
      <point x="465" y="524"/>
      <point x="480" y="573"/>
      <point x="490" y="600" type="curve"/>
    </contour>
  </outline>
</glyph>
<glyph name="eight" format="1">
  <advance width="522"/>
  <unicode hex="0038"/>
  <outline>
    <contour>
      <point x="447" y="349"/>
      <point x="519" y="442"/>
      <point x="519" y="498" type="curve" smooth="yes"/>
      <point x="519" y="573"/>
      <point x="436" y="607"/>
      <point x="324" y="607" type="curve" smooth="yes"/>
      <point x="146" y="607"/>
      <point x="75" y="517"/>
      <point x="75" y="433" type="curve" smooth="yes"/>
      <point x="75" y="360"/>
      <point x="133" y="318"/>
      <point x="198" y="279" type="curve" smooth="yes"/>
      <point x="272" y="236"/>
      <point x="354" y="197"/>
      <point x="354" y="124" type="curve" smooth="yes"/>
      <point x="354" y="61"/>
      <point x="302" y="26"/>
      <point x="237" y="26" type="curve" smooth="yes"/>
      <point x="166" y="26"/>
      <point x="128" y="67"/>
      <point x="128" y="123" type="curve" smooth="yes"/>
      <point x="128" y="167"/>
      <point x="160" y="238"/>
      <point x="229" y="274" type="curve"/>
      <point x="202" y="300" type="line"/>
      <point x="93" y="258"/>
      <point x="9" y="205"/>
      <point x="9" y="110" type="curve" smooth="yes"/>
      <point x="9" y="21"/>
      <point x="94" y="-10"/>
      <point x="219" y="-10" type="curve" smooth="yes"/>
      <point x="358" y="-10"/>
      <point x="497" y="51"/>
      <point x="497" y="180" type="curve" smooth="yes"/>
      <point x="497" y="265"/>
      <point x="421" y="314"/>
      <point x="348" y="357" type="curve" smooth="yes"/>
      <point x="280" y="398"/>
      <point x="215" y="434"/>
      <point x="215" y="488" type="curve" smooth="yes"/>
      <point x="215" y="533"/>
      <point x="258" y="570"/>
      <point x="324" y="570" type="curve" smooth="yes"/>
      <point x="377" y="570"/>
      <point x="406" y="543"/>
      <point x="406" y="495" type="curve" smooth="yes"/>
      <point x="406" y="446"/>
      <point x="378" y="387"/>
      <point x="322" y="356" type="curve"/>
      <point x="346" y="336" type="line"/>
    </contour>
  </outline>
</glyph>
<glyph name="C" format="1">
  <advance width="596"/>
  <unicode hex="0043"/>
  <outline>
    <contour>
      <point x="35" y="90"/>
      <point x="137" y="-10"/>
      <point x="311" y="-10" type="curve" smooth="yes"/>
      <point x="402" y="-10"/>
      <point x="476" y="35"/>
      <point x="539" y="35" type="curve" smooth="yes"/>
      <point x="545" y="35" type="line"/>
      <point x="545" y="49" type="line" smooth="yes"/>
      <point x="545" y="82"/>
      <point x="551" y="113"/>
      <point x="565" y="167" type="curve"/>
      <point x="527" y="167" type="line"/>
      <point x="500" y="88"/>
      <point x="426" y="27"/>
      <point x="344" y="27" type="curve" smooth="yes"/>
      <point x="255" y="27"/>
      <point x="201" y="100"/>
      <point x="201" y="237" type="curve" smooth="yes"/>
      <point x="201" y="447"/>
      <point x="280" y="572"/>
      <point x="407" y="572" type="curve" smooth="yes"/>
      <point x="485" y="572"/>
      <point x="547" y="509"/>
      <point x="554" y="433" type="curve"/>
      <point x="588" y="433" type="line"/>
      <point x="588" y="434"/>
      <point x="587" y="442"/>
      <point x="587" y="450" type="curve" smooth="yes"/>
      <point x="587" y="469"/>
      <point x="593" y="519"/>
      <point x="604" y="564" type="curve"/>
      <point x="527" y="564"/>
      <point x="505" y="607"/>
      <point x="392" y="607" type="curve" smooth="yes"/>
      <point x="172" y="607"/>
      <point x="35" y="472"/>
      <point x="35" y="253" type="curve" smooth="yes"/>
    </contour>
    <contour>
      <point x="405" y="598" type="move" name="top"/>
    </contour>
    <contour>
      <point x="321" y="0" type="move" name="bottom"/>
    </contour>
  </outline>
</glyph>
<glyph name="F" format="1">
  <advance width="529"/>
  <unicode hex="0046"/>
  <outline>
    <contour>
      <point x="560" y="597"/>
      <point x="555" y="597"/>
      <point x="548" y="597" type="curve" smooth="yes"/>
      <point x="89" y="597" type="line"/>
      <point x="83" y="557" type="line"/>
      <point x="120" y="559" type="line"/>
      <point x="131" y="559"/>
      <point x="136" y="552"/>
      <point x="134" y="538" type="curve" smooth="yes"/>
      <point x="66" y="59" type="line" smooth="yes"/>
      <point x="64" y="44"/>
      <point x="57" y="37"/>
      <point x="45" y="37" type="curve"/>
      <point x="11" y="40" type="line"/>
      <point x="5" y="0" type="line"/>
      <point x="282" y="0" type="line"/>
      <point x="288" y="40" type="line"/>
      <point x="235" y="37" type="line"/>
      <point x="224" y="37"/>
      <point x="217" y="46"/>
      <point x="219" y="58" type="curve" smooth="yes"/>
      <point x="250" y="277" type="line"/>
      <point x="315" y="277" type="line" smooth="yes"/>
      <point x="362" y="277"/>
      <point x="388" y="238"/>
      <point x="380" y="177" type="curve"/>
      <point x="417" y="177" type="line"/>
      <point x="451" y="417" type="line"/>
      <point x="414" y="417" type="line"/>
      <point x="405" y="353"/>
      <point x="367" y="315"/>
      <point x="320" y="315" type="curve" smooth="yes"/>
      <point x="255" y="315" type="line"/>
      <point x="288" y="546" type="line" smooth="yes"/>
      <point x="289" y="555"/>
      <point x="294" y="559"/>
      <point x="302" y="559" type="curve" smooth="yes"/>
      <point x="379" y="559" type="line" smooth="yes"/>
      <point x="478" y="559"/>
      <point x="518" y="524"/>
      <point x="504" y="443" type="curve"/>
      <point x="541" y="443" type="line"/>
      <point x="563" y="598" type="line"/>
    </contour>
  </outline>
</glyph>
<glyph name="L" format="1">
  <advance width="514"/>
  <unicode hex="004C"/>
  <outline>
    <contour>
      <point x="89" y="597" type="line"/>
      <point x="83" y="557" type="line"/>
      <point x="118" y="559" type="line" smooth="yes"/>
      <point x="129" y="560"/>
      <point x="135" y="549"/>
      <point x="134" y="538" type="curve"/>
      <point x="66" y="59" type="line"/>
      <point x="65" y="47"/>
      <point x="59" y="37"/>
      <point x="48" y="37" type="curve"/>
      <point x="11" y="40" type="line"/>
      <point x="5" y="0" type="line"/>
      <point x="338" y="0" type="line" smooth="yes"/>
      <point x="409" y="0"/>
      <point x="450" y="-1"/>
      <point x="462" y="-3" type="curve"/>
      <point x="486" y="171" type="line"/>
      <point x="450" y="171" type="line"/>
      <point x="438" y="85"/>
      <point x="386" y="38"/>
      <point x="301" y="38" type="curve" smooth="yes"/>
      <point x="228" y="38" type="line" smooth="yes"/>
      <point x="220" y="38"/>
      <point x="217" y="42"/>
      <point x="218" y="51" type="curve" smooth="yes"/>
      <point x="287" y="538" type="line"/>
      <point x="288" y="550"/>
      <point x="298" y="560"/>
      <point x="310" y="559" type="curve"/>
      <point x="358" y="557" type="line"/>
      <point x="364" y="597" type="line"/>
    </contour>
    <contour>
      <point x="215" y="598" type="move" name="top"/>
    </contour>
    <contour>
      <point x="207" y="0" type="move" name="bottom"/>
    </contour>
    <contour>
      <point x="445" y="598" type="move" name="topright"/>
    </contour>
  </outline>
</glyph>
<glyph name="O" format="1">
  <advance width="686"/>
  <unicode hex="004F"/>
  <outline>
    <contour>
      <point x="35" y="79"/>
      <point x="134" y="-10"/>
      <point x="313" y="-10" type="curve" smooth="yes"/>
      <point x="538" y="-10"/>
      <point x="675" y="142"/>
      <point x="675" y="341" type="curve" smooth="yes"/>
      <point x="675" y="516"/>
      <point x="579" y="607"/>
      <point x="397" y="607" type="curve" smooth="yes"/>
      <point x="174" y="607"/>
      <point x="35" y="460"/>
      <point x="35" y="258" type="curve" smooth="yes"/>
    </contour>
    <contour>
      <point x="197" y="243"/>
      <point x="206" y="338"/>
      <point x="230" y="419" type="curve" smooth="yes"/>
      <point x="255" y="503"/>
      <point x="295" y="570"/>
      <point x="392" y="570" type="curve" smooth="yes"/>
      <point x="493" y="570"/>
      <point x="512" y="488"/>
      <point x="513" y="418" type="curve" smooth="yes"/>
      <point x="514" y="352"/>
      <point x="503" y="251"/>
      <point x="477" y="168" type="curve" smooth="yes"/>
      <point x="452" y="89"/>
      <point x="414" y="27"/>
      <point x="321" y="27" type="curve" smooth="yes"/>
      <point x="219" y="27"/>
      <point x="198" y="101"/>
      <point x="197" y="179" type="curve" smooth="yes"/>
    </contour>
    <contour>
      <point x="387" y="598" type="move" name="top"/>
    </contour>
  </outline>
</glyph>
<glyph name="S" format="1">
  <advance width="502"/>
  <unicode hex="0053"/>
  <outline>
    <contour>
      <point x="154" y="607"/>
      <point x="73" y="521"/>
      <point x="73" y="413" type="curve" smooth="yes"/>
      <point x="73" y="337"/>
      <point x="114" y="290"/>
      <point x="178" y="257" type="curve" smooth="yes"/>
      <point x="253" y="218" type="line" smooth="yes"/>
      <point x="309" y="189"/>
      <point x="339" y="161"/>
      <point x="339" y="119" type="curve" smooth="yes"/>
      <point x="339" y="64"/>
      <point x="287" y="28"/>
      <point x="218" y="28" type="curve" smooth="yes"/>
      <point x="132" y="28"/>
      <point x="69" y="84"/>
      <point x="72" y="203" type="curve"/>
      <point x="36" y="199" type="line"/>
      <point x="38" y="199"/>
      <point x="38" y="182"/>
      <point x="38" y="180" type="curve" smooth="yes"/>
      <point x="38" y="114"/>
      <point x="24" y="44"/>
      <point x="14" y="13" type="curve"/>
      <point x="16" y="14"/>
      <point x="39" y="18"/>
      <point x="55" y="18" type="curve" smooth="yes"/>
      <point x="70" y="18"/>
      <point x="89" y="14"/>
      <point x="130" y="3" type="curve" smooth="yes"/>
      <point x="168" y="-7"/>
      <point x="191" y="-10"/>
      <point x="221" y="-10" type="curve" smooth="yes"/>
      <point x="396" y="-10"/>
      <point x="477" y="86"/>
      <point x="477" y="193" type="curve" smooth="yes"/>
      <point x="477" y="271"/>
      <point x="433" y="306"/>
      <point x="348" y="353" type="curve" smooth="yes"/>
      <point x="287" y="387" type="line" smooth="yes"/>
      <point x="231" y="418"/>
      <point x="203" y="443"/>
      <point x="203" y="485" type="curve" smooth="yes"/>
      <point x="203" y="546"/>
      <point x="263" y="570"/>
      <point x="320" y="570" type="curve" smooth="yes"/>
      <point x="408" y="570"/>
      <point x="460" y="512"/>
      <point x="449" y="434" type="curve"/>
      <point x="485" y="434" type="line"/>
      <point x="484" y="440"/>
      <point x="483" y="449"/>
      <point x="483" y="459" type="curve" smooth="yes"/>
      <point x="483" y="497"/>
      <point x="498" y="560"/>
      <point x="502" y="576" type="curve"/>
      <point x="494" y="573"/>
      <point x="482" y="572"/>
      <point x="473" y="572" type="curve" smooth="yes"/>
      <point x="462" y="572"/>
      <point x="455" y="574"/>
      <point x="444" y="578" type="curve" smooth="yes"/>
      <point x="394" y="595"/>
      <point x="366" y="607"/>
      <point x="308" y="607" type="curve" smooth="yes"/>
    </contour>
    <contour>
      <point x="317" y="598" type="move" name="top"/>
    </contour>
    <contour>
      <point x="236" y="0" type="move" name="bottom"/>
    </contour>
  </outline>
</glyph>
<glyph name="V" format="1">
  <advance width="615"/>
  <unicode hex="0056"/>
  <outline>
    <contour>
      <point x="526" y="597" type="line"/>
      <point x="520" y="557" type="line"/>
      <point x="568" y="559" type="line" smooth="yes"/>
      <point x="583" y="560"/>
      <point x="582" y="549"/>
      <point x="568" y="524" type="curve" smooth="yes"/>
      <point x="340" y="127" type="line"/>
      <point x="376" y="127" type="line"/>
      <point x="255" y="535" type="line"/>
      <point x="253" y="546"/>
      <point x="259" y="559"/>
      <point x="268" y="559" type="curve"/>
      <point x="316" y="557" type="line"/>
      <point x="322" y="597" type="line"/>
      <point x="53" y="597" type="line"/>
      <point x="47" y="557" type="line"/>
      <point x="76" y="559" type="line"/>
      <point x="85" y="559"/>
      <point x="90" y="551"/>
      <point x="95" y="536" type="curve"/>
      <point x="252" y="-4" type="line"/>
      <point x="313" y="-4" type="line"/>
      <point x="623" y="536" type="line"/>
      <point x="633" y="552"/>
      <point x="637" y="560"/>
      <point x="648" y="559" type="curve" smooth="yes"/>
      <point x="683" y="557" type="line"/>
      <point x="689" y="597" type="line"/>
    </contour>
  </outline>
</glyph>
<glyph name="X" format="1">
  <advance width="591"/>
  <unicode hex="0058"/>
  <outline>
    <contour>
      <point x="456" y="597" type="line"/>
      <point x="450" y="557" type="line"/>
      <point x="494" y="559" type="line" smooth="yes"/>
      <point x="509" y="560"/>
      <point x="507" y="550"/>
      <point x="499" y="539" type="curve" smooth="yes"/>
      <point x="353" y="352" type="line"/>
      <point x="253" y="305" type="line"/>
      <point x="64" y="60" type="line" smooth="yes"/>
      <point x="53" y="45"/>
      <point x="41" y="38"/>
      <point x="27" y="38" type="curve"/>
      <point x="-8" y="40" type="line"/>
      <point x="-14" y="0" type="line"/>
      <point x="155" y="0" type="line"/>
      <point x="161" y="40" type="line"/>
      <point x="115" y="37" type="line" smooth="yes"/>
      <point x="107" y="37"/>
      <point x="103" y="45"/>
      <point x="112" y="57" type="curve" smooth="yes"/>
      <point x="277" y="272" type="line"/>
      <point x="379" y="319" type="line"/>
      <point x="548" y="539" type="line" smooth="yes"/>
      <point x="558" y="552"/>
      <point x="570" y="559"/>
      <point x="582" y="559" type="curve"/>
      <point x="617" y="557" type="line"/>
      <point x="623" y="597" type="line"/>
    </contour>
    <contour>
      <point x="245" y="272" type="line"/>
      <point x="342" y="59" type="line"/>
      <point x="348" y="47"/>
      <point x="347" y="35"/>
      <point x="332" y="36" type="curve" smooth="yes"/>
      <point x="283" y="39" type="line"/>
      <point x="278" y="0" type="line"/>
      <point x="568" y="0" type="line"/>
      <point x="573" y="39" type="line"/>
      <point x="544" y="36" type="line" smooth="yes"/>
      <point x="529" y="34"/>
      <point x="520" y="44"/>
      <point x="516" y="53" type="curve" smooth="yes"/>
      <point x="386" y="337" type="line"/>
    </contour>
    <contour>
      <point x="84" y="597" type="line"/>
      <point x="78" y="557" type="line"/>
      <point x="101" y="559" type="line" smooth="yes"/>
      <point x="112" y="560"/>
      <point x="123" y="555"/>
      <point x="130" y="540" type="curve" smooth="yes"/>
      <point x="245" y="287" type="line"/>
      <point x="382" y="351" type="line"/>
      <point x="303" y="538" type="line"/>
      <point x="298" y="548"/>
      <point x="303" y="560"/>
      <point x="320" y="559" type="curve" smooth="yes"/>
      <point x="361" y="557" type="line"/>
      <point x="367" y="597" type="line"/>
    </contour>
  </outline>
</glyph>
<glyph name="Y" format="1">
  <advance width="576"/>
  <unicode hex="0059"/>
  <outline>
    <contour>
      <point x="55" y="597" type="line"/>
      <point x="49" y="557" type="line"/>
      <point x="78" y="559" type="line"/>
      <point x="87" y="559"/>
      <point x="93" y="553"/>
      <point x="99" y="540" type="curve" smooth="yes"/>
      <point x="231" y="254" type="line"/>
      <point x="203" y="59" type="line" smooth="yes"/>
      <point x="201" y="44"/>
      <point x="194" y="37"/>
      <point x="181" y="37" type="curve"/>
      <point x="132" y="39" type="line"/>
      <point x="127" y="0" type="line"/>
      <point x="416" y="0" type="line"/>
      <point x="421" y="39" type="line"/>
      <point x="373" y="37" type="line"/>
      <point x="358" y="37"/>
      <point x="354" y="46"/>
      <point x="356" y="58" type="curve" smooth="yes"/>
      <point x="391" y="309" type="line"/>
      <point x="376" y="309" type="line"/>
      <point x="272" y="535" type="line" smooth="yes"/>
      <point x="267" y="546"/>
      <point x="268" y="560"/>
      <point x="283" y="559" type="curve" smooth="yes"/>
      <point x="335" y="557" type="line"/>
      <point x="341" y="597" type="line"/>
    </contour>
    <contour>
      <point x="478" y="597" type="line"/>
      <point x="472" y="557" type="line"/>
      <point x="525" y="559" type="line"/>
      <point x="537" y="559"/>
      <point x="534" y="547"/>
      <point x="529" y="539" type="curve"/>
      <point x="367" y="309" type="line"/>
      <point x="383" y="266" type="line"/>
      <point x="574" y="538" type="line" smooth="yes"/>
      <point x="584" y="552"/>
      <point x="594" y="559"/>
      <point x="605" y="559" type="curve"/>
      <point x="634" y="557" type="line"/>
      <point x="640" y="597" type="line"/>
    </contour>
    <contour>
      <point x="370" y="598" type="move" name="top"/>
    </contour>
  </outline>
</glyph>
<glyph name="Z" format="1">
  <advance width="558"/>
  <unicode hex="005A"/>
  <outline>
    <contour>
      <point x="93" y="443" type="line"/>
      <point x="130" y="443" type="line"/>
      <point x="142" y="523"/>
      <point x="193" y="559"/>
      <point x="288" y="559" type="curve" smooth="yes"/>
      <point x="439" y="559" type="line"/>
      <point x="410" y="590" type="line"/>
      <point x="4" y="27" type="line"/>
      <point x="0" y="0" type="line"/>
      <point x="387" y="0" type="line" smooth="yes"/>
      <point x="454" y="0"/>
      <point x="491" y="-1"/>
      <point x="499" y="-4" type="curve"/>
      <point x="531" y="167" type="line"/>
      <point x="494" y="167" type="line"/>
      <point x="483" y="85"/>
      <point x="417" y="37"/>
      <point x="326" y="37" type="curve" smooth="yes"/>
      <point x="146" y="37" type="line"/>
      <point x="175" y="7" type="line"/>
      <point x="576" y="573" type="line"/>
      <point x="579" y="597" type="line"/>
      <point x="224" y="597" type="line" smooth="yes"/>
      <point x="180" y="597"/>
      <point x="134" y="600"/>
      <point x="115" y="600" type="curve"/>
    </contour>
    <contour>
      <point x="373" y="598" type="move" name="top"/>
    </contour>
  </outline>
</glyph>
<glyph name="bracketleft" format="1">
  <advance width="286"/>
  <unicode hex="005B"/>
  <outline>
    <contour>
      <point x="111" y="675" type="line"/>
      <point x="-5" y="-147" type="line"/>
      <point x="202" y="-147" type="line"/>
      <point x="207" y="-110" type="line"/>
      <point x="133" y="-110" type="line"/>
      <point x="239" y="638" type="line"/>
      <point x="313" y="638" type="line"/>
      <point x="318" y="675" type="line"/>
    </contour>
  </outline>
</glyph>
<glyph name="asciicircum" format="1">
  <advance width="460"/>
  <unicode hex="005E"/>
  <outline>
    <contour>
      <point x="281" y="657" type="line"/>
      <point x="33" y="321" type="line"/>
      <point x="89" y="321" type="line"/>
      <point x="271" y="566" type="line"/>
      <point x="283" y="593" type="line"/>
      <point x="290" y="566" type="line"/>
      <point x="400" y="321" type="line"/>
      <point x="457" y="321" type="line"/>
      <point x="304" y="657" type="line"/>
    </contour>
  </outline>
</glyph>
<glyph name="a" format="1">
  <advance width="526"/>
  <unicode hex="0061"/>
  <outline>
    <contour>
      <point x="135" y="437"/>
      <point x="25" y="279"/>
      <point x="25" y="112" type="curve" smooth="yes"/>
      <point x="25" y="36"/>
      <point x="58" y="-10"/>
      <point x="117" y="-10" type="curve" smooth="yes"/>
      <point x="180" y="-10"/>
      <point x="257" y="32"/>
      <point x="309" y="157" type="curve"/>
      <point x="301" y="105"/>
      <point x="293" y="59"/>
      <point x="293" y="36" type="curve" smooth="yes"/>
      <point x="293" y="5"/>
      <point x="299" y="-10"/>
      <point x="333" y="-10" type="curve" smooth="yes"/>
      <point x="386" y="-10"/>
      <point x="457" y="23"/>
      <point x="499" y="60" type="curve"/>
      <point x="488" y="90" type="line"/>
      <point x="476" y="82"/>
      <point x="461" y="77"/>
      <point x="450" y="77" type="curve" smooth="yes"/>
      <point x="441" y="77"/>
      <point x="437" y="83"/>
      <point x="437" y="94" type="curve" smooth="yes"/>
      <point x="437" y="130"/>
      <point x="456" y="241"/>
      <point x="480" y="341" type="curve" smooth="yes"/>
      <point x="503" y="436" type="line"/>
      <point x="359" y="422" type="line"/>
      <point x="347" y="377" type="line"/>
      <point x="359" y="378" type="line"/>
      <point x="352" y="419"/>
      <point x="315" y="437"/>
      <point x="280" y="437" type="curve" smooth="yes"/>
    </contour>
    <contour>
      <point x="327" y="397"/>
      <point x="340" y="378"/>
      <point x="340" y="355" type="curve" smooth="yes"/>
      <point x="340" y="259"/>
      <point x="248" y="75"/>
      <point x="204" y="75" type="curve" smooth="yes"/>
      <point x="186" y="75"/>
      <point x="174" y="95"/>
      <point x="174" y="133" type="curve" smooth="yes"/>
      <point x="174" y="167"/>
      <point x="180" y="206"/>
      <point x="191" y="244" type="curve" smooth="yes"/>
      <point x="216" y="337"/>
      <point x="258" y="397"/>
      <point x="300" y="397" type="curve" smooth="yes"/>
    </contour>
    <contour>
      <point x="426" y="14" type="move" name="ogonek"/>
    </contour>
    <contour>
      <point x="313" y="420" type="move" name="top"/>
    </contour>
  </outline>
</glyph>
<glyph name="c" format="1">
  <advance width="419"/>
  <unicode hex="0063"/>
  <outline>
    <contour>
      <point x="145" y="437"/>
      <point x="15" y="323"/>
      <point x="15" y="162" type="curve" smooth="yes"/>
      <point x="15" y="54"/>
      <point x="73" y="-9"/>
      <point x="177" y="-9" type="curve" smooth="yes"/>
      <point x="256" y="-9"/>
      <point x="337" y="32"/>
      <point x="382" y="94" type="curve"/>
      <point x="360" y="116" type="line"/>
      <point x="324" y="84"/>
      <point x="279" y="68"/>
      <point x="241" y="68" type="curve" smooth="yes"/>
      <point x="195" y="68"/>
      <point x="164" y="98"/>
      <point x="164" y="173" type="curve" smooth="yes"/>
      <point x="164" y="221"/>
      <point x="172" y="271"/>
      <point x="191" y="319" type="curve" smooth="yes"/>
      <point x="212" y="372"/>
      <point x="238" y="400"/>
      <point x="269" y="400" type="curve" smooth="yes"/>
      <point x="291" y="400"/>
      <point x="307" y="386"/>
      <point x="307" y="363" type="curve" smooth="yes"/>
      <point x="307" y="341"/>
      <point x="291" y="332"/>
      <point x="291" y="307" type="curve" smooth="yes"/>
      <point x="291" y="271"/>
      <point x="324" y="265"/>
      <point x="345" y="265" type="curve" smooth="yes"/>
      <point x="395" y="265"/>
      <point x="424" y="300"/>
      <point x="424" y="340" type="curve" smooth="yes"/>
      <point x="424" y="397"/>
      <point x="363" y="437"/>
      <point x="282" y="437" type="curve" smooth="yes"/>
    </contour>
    <contour>
      <point x="268" y="420" type="move" name="top"/>
    </contour>
    <contour>
      <point x="193" y="0" type="move" name="bottom"/>
    </contour>
  </outline>
</glyph>
<glyph name="k" format="1">
  <advance width="514"/>
  <unicode hex="006B"/>
  <outline>
    <contour>
      <point x="300" y="437"/>
      <point x="233" y="342"/>
      <point x="190" y="249" type="curve"/>
      <point x="177" y="128" type="line"/>
      <point x="198" y="239"/>
      <point x="281" y="360"/>
      <point x="341" y="360" type="curve" smooth="yes"/>
      <point x="355" y="360"/>
      <point x="361" y="351"/>
      <point x="361" y="336" type="curve" smooth="yes"/>
      <point x="361" y="300"/>
      <point x="334" y="237"/>
      <point x="238" y="192" type="curve"/>
      <point x="288" y="47" type="line"/>
      <point x="301" y="15"/>
      <point x="320" y="-5"/>
      <point x="365" y="-5" type="curve" smooth="yes"/>
      <point x="404" y="-5"/>
      <point x="458" y="23"/>
      <point x="510" y="67" type="curve"/>
      <point x="494" y="94" type="line"/>
      <point x="471" y="84"/>
      <point x="453" y="78"/>
      <point x="440" y="78" type="curve" smooth="yes"/>
      <point x="426" y="78"/>
      <point x="420" y="86"/>
      <point x="415" y="99" type="curve" smooth="yes"/>
      <point x="367" y="230" type="line"/>
      <point x="444" y="267"/>
      <point x="499" y="310"/>
      <point x="499" y="364" type="curve" smooth="yes"/>
      <point x="499" y="404"/>
      <point x="466" y="437"/>
      <point x="413" y="437" type="curve" smooth="yes"/>
    </contour>
    <contour>
      <point x="181" y="730"/>
      <point x="117" y="722"/>
      <point x="51" y="698" type="curve"/>
      <point x="56" y="663" type="line"/>
      <point x="65" y="665"/>
      <point x="73" y="665"/>
      <point x="80" y="665" type="curve" smooth="yes"/>
      <point x="100" y="665"/>
      <point x="113" y="657"/>
      <point x="113" y="641" type="curve" smooth="yes"/>
      <point x="113" y="571"/>
      <point x="40" y="86"/>
      <point x="26" y="0" type="curve"/>
      <point x="165" y="0" type="line"/>
      <point x="180" y="123" type="line"/>
      <point x="192" y="213" type="line"/>
      <point x="228" y="464" type="line" smooth="yes"/>
      <point x="236" y="518"/>
      <point x="248" y="589"/>
      <point x="257" y="640" type="curve" smooth="yes"/>
      <point x="262" y="669"/>
      <point x="267" y="691"/>
      <point x="267" y="698" type="curve" smooth="yes"/>
      <point x="267" y="726"/>
      <point x="248" y="730"/>
      <point x="214" y="730" type="curve" smooth="yes"/>
    </contour>
    <contour>
      <point x="266" y="0" type="move" name="bottom"/>
    </contour>
  </outline>
</glyph>
<glyph name="o" format="1">
  <advance width="466"/>
  <unicode hex="006F"/>
  <outline>
    <contour>
      <point x="102" y="437"/>
      <point x="15" y="302"/>
      <point x="15" y="159" type="curve" smooth="yes"/>
      <point x="15" y="64"/>
      <point x="65" y="-10"/>
      <point x="180" y="-10" type="curve" smooth="yes"/>
      <point x="364" y="-10"/>
      <point x="451" y="125"/>
      <point x="451" y="268" type="curve" smooth="yes"/>
      <point x="451" y="363"/>
      <point x="401" y="437"/>
      <point x="286" y="437" type="curve" smooth="yes"/>
    </contour>
    <contour>
      <point x="289" y="391"/>
      <point x="306" y="366"/>
      <point x="306" y="299" type="curve" smooth="yes"/>
      <point x="306" y="254"/>
      <point x="299" y="199"/>
      <point x="287" y="152" type="curve" smooth="yes"/>
      <point x="271" y="89"/>
      <point x="247" y="36"/>
      <point x="203" y="36" type="curve" smooth="yes"/>
      <point x="177" y="36"/>
      <point x="160" y="61"/>
      <point x="160" y="128" type="curve" smooth="yes"/>
      <point x="160" y="173"/>
      <point x="167" y="228"/>
      <point x="179" y="275" type="curve" smooth="yes"/>
      <point x="195" y="338"/>
      <point x="219" y="391"/>
      <point x="263" y="391" type="curve" smooth="yes"/>
    </contour>
    <contour>
      <point x="281" y="420" type="move" name="top"/>
    </contour>
  </outline>
</glyph>
<glyph name="r" format="1">
  <advance width="438"/>
  <unicode hex="0072"/>
  <outline>
    <contour>
      <point x="290" y="427"/>
      <point x="228" y="336"/>
      <point x="194" y="237" type="curve"/>
      <point x="179" y="100" type="line"/>
      <point x="200" y="214"/>
      <point x="267" y="341"/>
      <point x="309" y="341" type="curve" smooth="yes"/>
      <point x="314" y="341"/>
      <point x="317" y="337"/>
      <point x="317" y="331" type="curve" smooth="yes"/>
      <point x="317" y="320"/>
      <point x="311" y="312"/>
      <point x="311" y="296" type="curve" smooth="yes"/>
      <point x="311" y="263"/>
      <point x="344" y="258"/>
      <point x="362" y="258" type="curve" smooth="yes"/>
      <point x="418" y="258"/>
      <point x="444" y="306"/>
      <point x="444" y="347" type="curve" smooth="yes"/>
      <point x="444" y="384"/>
      <point x="422" y="427"/>
      <point x="368" y="427" type="curve" smooth="yes"/>
    </contour>
    <contour>
      <point x="122" y="433"/>
      <point x="72" y="420"/>
      <point x="28" y="407" type="curve"/>
      <point x="32" y="368" type="line"/>
      <point x="36" y="369"/>
      <point x="43" y="370"/>
      <point x="48" y="370" type="curve" smooth="yes"/>
      <point x="68" y="370"/>
      <point x="77" y="358"/>
      <point x="77" y="338" type="curve" smooth="yes"/>
      <point x="77" y="277"/>
      <point x="48" y="100"/>
      <point x="31" y="0" type="curve"/>
      <point x="169" y="0" type="line"/>
      <point x="184" y="125" type="line"/>
      <point x="196" y="211" type="line" smooth="yes"/>
      <point x="207" y="278"/>
      <point x="228" y="386"/>
      <point x="228" y="404" type="curve" smooth="yes"/>
      <point x="228" y="428"/>
      <point x="201" y="433"/>
      <point x="175" y="433" type="curve" smooth="yes"/>
    </contour>
    <contour>
      <point x="177" y="420" type="move" name="top"/>
    </contour>
    <contour>
      <point x="98" y="0" type="move" name="bottom"/>
    </contour>
  </outline>
</glyph>
<glyph name="w" format="1">
  <advance width="692"/>
  <unicode hex="0077"/>
  <outline>
    <contour>
      <point x="581" y="437"/>
      <point x="552" y="411"/>
      <point x="552" y="373" type="curve" smooth="yes"/>
      <point x="552" y="338"/>
      <point x="567" y="319"/>
      <point x="596" y="319" type="curve" smooth="yes"/>
      <point x="611" y="319"/>
      <point x="626" y="314"/>
      <point x="626" y="294" type="curve" smooth="yes"/>
      <point x="626" y="208"/>
      <point x="518" y="96"/>
      <point x="438" y="25" type="curve"/>
      <point x="460" y="-5" type="line"/>
      <point x="557" y="64"/>
      <point x="697" y="236"/>
      <point x="697" y="358" type="curve" smooth="yes"/>
      <point x="697" y="407"/>
      <point x="670" y="437"/>
      <point x="625" y="437" type="curve" smooth="yes"/>
    </contour>
    <contour>
      <point x="160" y="35" type="line"/>
      <point x="170" y="-5" type="line"/>
      <point x="207" y="-5" type="line"/>
      <point x="207" y="35" type="line"/>
    </contour>
    <contour>
      <point x="76" y="341" type="line"/>
      <point x="170" y="-5" type="line"/>
      <point x="279" y="73" type="line"/>
      <point x="215" y="363" type="line"/>
    </contour>
    <contour>
      <point x="413" y="35" type="line"/>
      <point x="423" y="-5" type="line"/>
      <point x="460" y="-5" type="line"/>
      <point x="460" y="35" type="line"/>
    </contour>
    <contour>
      <point x="373" y="294" type="line"/>
      <point x="373" y="208"/>
      <point x="265" y="96"/>
      <point x="185" y="25" type="curve"/>
      <point x="207" y="-5" type="line"/>
      <point x="304" y="64"/>
      <point x="444" y="236"/>
      <point x="444" y="358" type="curve"/>
    </contour>
    <contour>
      <point x="110" y="433"/>
      <point x="60" y="420"/>
      <point x="20" y="407" type="curve"/>
      <point x="26" y="371" type="line"/>
      <point x="36" y="373"/>
      <point x="44" y="374"/>
      <point x="49" y="374" type="curve" smooth="yes"/>
      <point x="62" y="374"/>
      <point x="70" y="366"/>
      <point x="76" y="341" type="curve"/>
      <point x="215" y="363" type="line"/>
      <point x="202" y="422"/>
      <point x="177" y="433"/>
      <point x="144" y="433" type="curve" smooth="yes"/>
    </contour>
    <contour>
      <point x="298" y="427" type="line"/>
      <point x="310" y="407"/>
      <point x="319" y="380"/>
      <point x="326" y="354" type="curve" smooth="yes"/>
      <point x="362" y="227" type="line"/>
      <point x="423" y="-5" type="line"/>
      <point x="532" y="73" type="line"/>
      <point x="454" y="427" type="line"/>
    </contour>
    <contour>
      <point x="364" y="420" type="move" name="top"/>
    </contour>
  </outline>
</glyph>
<glyph name="x" format="1">
  <advance width="494"/>
  <unicode hex="0078"/>
  <outline>
    <contour>
      <point x="150" y="433"/>
      <point x="84" y="420"/>
      <point x="39" y="407" type="curve"/>
      <point x="47" y="371" type="line"/>
      <point x="65" y="373"/>
      <point x="79" y="374"/>
      <point x="92" y="374" type="curve" smooth="yes"/>
      <point x="110" y="374"/>
      <point x="114" y="366"/>
      <point x="125" y="341" type="curve" smooth="yes"/>
      <point x="261" y="22" type="line"/>
      <point x="273" y="1"/>
      <point x="288" y="-5"/>
      <point x="310" y="-5" type="curve" smooth="yes"/>
      <point x="345" y="-5"/>
      <point x="404" y="24"/>
      <point x="466" y="75" type="curve"/>
      <point x="451" y="101" type="line"/>
      <point x="424" y="91"/>
      <point x="407" y="85"/>
      <point x="396" y="85" type="curve" smooth="yes"/>
      <point x="387" y="85"/>
      <point x="381" y="88"/>
      <point x="376" y="100" type="curve" smooth="yes"/>
      <point x="255" y="385" type="line" smooth="yes"/>
      <point x="240" y="421"/>
      <point x="220" y="433"/>
      <point x="190" y="433" type="curve" smooth="yes"/>
    </contour>
    <contour>
      <point x="156" y="112" type="line" smooth="yes"/>
      <point x="141" y="90"/>
      <point x="130" y="87"/>
      <point x="121" y="87" type="curve" smooth="yes"/>
      <point x="95" y="87"/>
      <point x="93" y="118"/>
      <point x="54" y="118" type="curve" smooth="yes"/>
      <point x="19" y="118"/>
      <point x="-7" y="88"/>
      <point x="-6" y="48" type="curve" smooth="yes"/>
      <point x="-6" y="12"/>
      <point x="16" y="-10"/>
      <point x="53" y="-10" type="curve" smooth="yes"/>
      <point x="102" y="-10"/>
      <point x="139" y="14"/>
      <point x="178" y="77" type="curve" smooth="yes"/>
      <point x="258" y="203" type="line"/>
      <point x="231" y="226" type="line"/>
    </contour>
    <contour>
      <point x="400" y="437"/>
      <point x="363" y="413"/>
      <point x="324" y="350" type="curve" smooth="yes"/>
      <point x="244" y="224" type="line"/>
      <point x="271" y="201" type="line"/>
      <point x="346" y="315" type="line" smooth="yes"/>
      <point x="361" y="337"/>
      <point x="372" y="340"/>
      <point x="381" y="340" type="curve" smooth="yes"/>
      <point x="407" y="340"/>
      <point x="409" y="309"/>
      <point x="448" y="309" type="curve" smooth="yes"/>
      <point x="483" y="309"/>
      <point x="509" y="339"/>
      <point x="508" y="379" type="curve" smooth="yes"/>
      <point x="508" y="415"/>
      <point x="486" y="437"/>
      <point x="449" y="437" type="curve" smooth="yes"/>
    </contour>
  </outline>
</glyph>
<glyph name="y" format="1">
  <advance width="419"/>
  <unicode hex="0079"/>
  <outline>
    <contour>
      <point x="308" y="438"/>
      <point x="279" y="412"/>
      <point x="279" y="374" type="curve" smooth="yes"/>
      <point x="279" y="339"/>
      <point x="294" y="320"/>
      <point x="323" y="320" type="curve" smooth="yes"/>
      <point x="338" y="320"/>
      <point x="353" y="315"/>
      <point x="353" y="295" type="curve" smooth="yes"/>
      <point x="353" y="245"/>
      <point x="291" y="141"/>
      <point x="225" y="45" type="curve" smooth="yes"/>
      <point x="148" y="-67"/>
      <point x="76" y="-153"/>
      <point x="30" y="-153" type="curve" smooth="yes"/>
      <point x="-2" y="-151"/>
      <point x="7" y="-95"/>
      <point x="-51" y="-95" type="curve" smooth="yes"/>
      <point x="-85" y="-95"/>
      <point x="-114" y="-122"/>
      <point x="-114" y="-160" type="curve" smooth="yes"/>
      <point x="-114" y="-198"/>
      <point x="-91" y="-239"/>
      <point x="-32" y="-239" type="curve" smooth="yes"/>
      <point x="57" y="-239"/>
      <point x="166" y="-115"/>
      <point x="260" y="21" type="curve" smooth="yes"/>
      <point x="345" y="144"/>
      <point x="424" y="280"/>
      <point x="424" y="359" type="curve" smooth="yes"/>
      <point x="424" y="408"/>
      <point x="397" y="438"/>
      <point x="352" y="438" type="curve" smooth="yes"/>
    </contour>
    <contour>
      <point x="90" y="434"/>
      <point x="40" y="421"/>
      <point x="0" y="408" type="curve"/>
      <point x="6" y="372" type="line"/>
      <point x="16" y="374"/>
      <point x="24" y="375"/>
      <point x="29" y="375" type="curve" smooth="yes"/>
      <point x="42" y="375"/>
      <point x="50" y="367"/>
      <point x="57" y="342" type="curve" smooth="yes"/>
      <point x="164" y="-56" type="line"/>
      <point x="198" y="-56" type="line"/>
      <point x="262" y="75" type="line"/>
      <point x="195" y="364" type="line" smooth="yes"/>
      <point x="181" y="425"/>
      <point x="157" y="434"/>
      <point x="124" y="434" type="curve" smooth="yes"/>
    </contour>
    <contour>
      <point x="230" y="420" type="move" name="top"/>
    </contour>
  </outline>
</glyph>
<glyph name="z" format="1">
  <advance width="423"/>
  <unicode hex="007A"/>
  <outline>
    <contour>
      <point x="3" y="16" type="line"/>
      <point x="38" y="-10" type="line"/>
      <point x="421" y="407" type="line"/>
      <point x="386" y="434" type="line"/>
    </contour>
    <contour>
      <point x="172" y="148"/>
      <point x="159" y="146"/>
      <point x="144" y="128" type="curve" smooth="yes"/>
      <point x="32" y="-7" type="line"/>
      <point x="66" y="16"/>
      <point x="91" y="23"/>
      <point x="112" y="23" type="curve" smooth="yes"/>
      <point x="156" y="23"/>
      <point x="180" y="-10"/>
      <point x="239" y="-10" type="curve" smooth="yes"/>
      <point x="319" y="-10"/>
      <point x="364" y="51"/>
      <point x="394" y="112" type="curve"/>
      <point x="370" y="129" type="line"/>
      <point x="348" y="104"/>
      <point x="329" y="95"/>
      <point x="311" y="95" type="curve" smooth="yes"/>
      <point x="265" y="95"/>
      <point x="262" y="148"/>
      <point x="187" y="148" type="curve" smooth="yes"/>
    </contour>
    <contour>
      <point x="114" y="437"/>
      <point x="69" y="373"/>
      <point x="41" y="320" type="curve"/>
      <point x="60" y="298" type="line"/>
      <point x="88" y="325"/>
      <point x="112" y="332"/>
      <point x="129" y="332" type="curve" smooth="yes"/>
      <point x="168" y="332"/>
      <point x="182" y="296"/>
      <point x="235" y="296" type="curve" smooth="yes"/>
      <point x="257" y="296"/>
      <point x="280" y="302"/>
      <point x="310" y="316" type="curve"/>
      <point x="386" y="434" type="line"/>
      <point x="361" y="419"/>
      <point x="337" y="411"/>
      <point x="316" y="411" type="curve" smooth="yes"/>
      <point x="277" y="411"/>
      <point x="257" y="437"/>
      <point x="201" y="437" type="curve" smooth="yes"/>
    </contour>
    <contour>
      <point x="226" y="420" type="move" name="top"/>
    </contour>
  </outline>
</glyph>
<glyph name="braceleft" format="1">
  <advance width="281"/>
  <unicode hex="007B"/>
  <outline>
    <contour>
      <point x="267" y="675" type="line" smooth="yes"/>
      <point x="166" y="675"/>
      <point x="135" y="654"/>
      <point x="125" y="582" type="curve" smooth="yes"/>
      <point x="93" y="358" type="line" smooth="yes"/>
      <point x="86" y="310"/>
      <point x="74" y="290"/>
      <point x="40" y="282" type="curve"/>
      <point x="36" y="252" type="line"/>
      <point x="61" y="242"/>
      <point x="71" y="236"/>
      <point x="71" y="208" type="curve" smooth="yes"/>
      <point x="71" y="177"/>
      <point x="33" y="-50"/>
      <point x="33" y="-80" type="curve" smooth="yes"/>
      <point x="33" y="-130"/>
      <point x="62" y="-146"/>
      <point x="151" y="-146" type="curve" smooth="yes"/>
      <point x="205" y="-146" type="line"/>
      <point x="211" y="-106" type="line"/>
      <point x="184" y="-106" type="line" smooth="yes"/>
      <point x="166" y="-106"/>
      <point x="160" y="-96"/>
      <point x="160" y="-77" type="curve" smooth="yes"/>
      <point x="160" y="-52"/>
      <point x="196" y="161"/>
      <point x="196" y="195" type="curve" smooth="yes"/>
      <point x="196" y="241"/>
      <point x="170" y="253"/>
      <point x="91" y="267" type="curve"/>
      <point x="184" y="280"/>
      <point x="212" y="296"/>
      <point x="220" y="358" type="curve" smooth="yes"/>
      <point x="253" y="589" type="line" smooth="yes"/>
      <point x="257" y="619"/>
      <point x="268" y="635"/>
      <point x="288" y="635" type="curve" smooth="yes"/>
      <point x="315" y="635" type="line"/>
      <point x="321" y="675" type="line"/>
    </contour>
  </outline>
</glyph>
<glyph name="bar" format="1">
  <advance width="226"/>
  <unicode hex="007C"/>
  <outline>
    <contour>
      <point x="30" y="-239" type="line"/>
      <point x="78" y="-239" type="line"/>
      <point x="214" y="730" type="line"/>
      <point x="166" y="730" type="line"/>
    </contour>
  </outline>
</glyph>
<glyph name="cent" format="1">
  <advance width="421"/>
  <unicode hex="00A2"/>
  <outline>
    <contour>
      <point x="150" y="471"/>
      <point x="41" y="416"/>
      <point x="41" y="260" type="curve" smooth="yes"/>
      <point x="41" y="139"/>
      <point x="135" y="111"/>
      <point x="220" y="111" type="curve" smooth="yes"/>
      <point x="287" y="111"/>
      <point x="349" y="125"/>
      <point x="390" y="207" type="curve"/>
      <point x="361" y="216" type="line"/>
      <point x="325" y="157"/>
      <point x="290" y="148"/>
      <point x="260" y="148" type="curve" smooth="yes"/>
      <point x="225" y="148"/>
      <point x="188" y="160"/>
      <point x="188" y="253" type="curve" smooth="yes"/>
      <point x="188" y="385"/>
      <point x="225" y="438"/>
      <point x="275" y="438" type="curve" smooth="yes"/>
      <point x="293" y="438"/>
      <point x="308" y="430"/>
      <point x="308" y="411" type="curve" smooth="yes"/>
      <point x="308" y="393"/>
      <point x="295" y="389"/>
      <point x="295" y="367" type="curve" smooth="yes"/>
      <point x="295" y="339"/>
      <point x="319" y="326"/>
      <point x="348" y="326" type="curve" smooth="yes"/>
      <point x="393" y="326"/>
      <point x="421" y="357"/>
      <point x="421" y="391" type="curve" smooth="yes"/>
      <point x="421" y="436"/>
      <point x="367" y="471"/>
      <point x="273" y="471" type="curve" smooth="yes"/>
    </contour>
    <contour>
      <point x="195" y="124" type="line"/>
      <point x="165" y="-95" type="line"/>
      <point x="212" y="-95" type="line"/>
      <point x="243" y="126" type="line"/>
    </contour>
    <contour>
      <point x="269" y="647" type="line"/>
      <point x="242" y="458" type="line"/>
      <point x="289" y="455" type="line"/>
      <point x="316" y="647" type="line"/>
    </contour>
  </outline>
</glyph>
<glyph name="yen" format="1">
  <advance width="576"/>
  <unicode hex="00A5"/>
  <outline>
    <contour>
      <point x="91" y="231" type="line"/>
      <point x="86" y="192" type="line"/>
      <point x="516" y="192" type="line"/>
      <point x="521" y="231" type="line"/>
    </contour>
    <contour>
      <point x="107" y="341" type="line"/>
      <point x="101" y="302" type="line"/>
      <point x="211" y="302" type="line"/>
      <point x="217" y="341" type="line"/>
    </contour>
    <contour>
      <point x="410" y="341" type="line"/>
      <point x="404" y="302" type="line"/>
      <point x="531" y="302" type="line"/>
      <point x="537" y="341" type="line"/>
    </contour>
    <component base="Y"/>
  </outline>
</glyph>
<glyph name="degree" format="1">
  <advance width="362"/>
  <unicode hex="00B0"/>
  <outline>
    <contour>
      <point x="117" y="440"/>
      <point x="154" y="401"/>
      <point x="209" y="401" type="curve" smooth="yes"/>
      <point x="275" y="401"/>
      <point x="328" y="455"/>
      <point x="328" y="519" type="curve" smooth="yes"/>
      <point x="328" y="578"/>
      <point x="291" y="617"/>
      <point x="236" y="617" type="curve" smooth="yes"/>
      <point x="170" y="617"/>
      <point x="117" y="564"/>
      <point x="117" y="498" type="curve" smooth="yes"/>
    </contour>
    <contour>
      <point x="170" y="537"/>
      <point x="197" y="565"/>
      <point x="230" y="565" type="curve" smooth="yes"/>
      <point x="256" y="565"/>
      <point x="273" y="545"/>
      <point x="273" y="516" type="curve" smooth="yes"/>
      <point x="273" y="481"/>
      <point x="247" y="453"/>
      <point x="215" y="453" type="curve" smooth="yes"/>
      <point x="188" y="453"/>
      <point x="170" y="473"/>
      <point x="170" y="502" type="curve" smooth="yes"/>
    </contour>
  </outline>
</glyph>
<glyph name="ordmasculine" format="1">
  <advance width="353"/>
  <unicode hex="00BA"/>
  <outline>
    <contour>
      <point x="51" y="395"/>
      <point x="95" y="344"/>
      <point x="194" y="344" type="curve" smooth="yes"/>
      <point x="307" y="344"/>
      <point x="377" y="404"/>
      <point x="377" y="499" type="curve" smooth="yes"/>
      <point x="377" y="576"/>
      <point x="322" y="618"/>
      <point x="233" y="618" type="curve" smooth="yes"/>
      <point x="123" y="618"/>
      <point x="51" y="558"/>
      <point x="51" y="462" type="curve" smooth="yes"/>
    </contour>
    <contour>
      <point x="168" y="466"/>
      <point x="173" y="584"/>
      <point x="223" y="584" type="curve" smooth="yes"/>
      <point x="245" y="584"/>
      <point x="260" y="568"/>
      <point x="260" y="527" type="curve" smooth="yes"/>
      <point x="260" y="493"/>
      <point x="254" y="378"/>
      <point x="204" y="378" type="curve" smooth="yes"/>
      <point x="181" y="378"/>
      <point x="168" y="395"/>
      <point x="168" y="432" type="curve" smooth="yes"/>
    </contour>
  </outline>
</glyph>
<glyph name="onequarter" format="1">
  <advance width="587"/>
  <unicode hex="00BC"/>
  <outline>
    <contour>
      <point x="371" y="59" type="line"/>
      <point x="368" y="37" type="line" smooth="yes"/>
      <point x="367" y="30"/>
      <point x="363" y="27"/>
      <point x="356" y="27" type="curve" smooth="yes"/>
      <point x="320" y="28" type="line"/>
      <point x="316" y="0" type="line"/>
      <point x="509" y="0" type="line"/>
      <point x="513" y="28" type="line"/>
      <point x="494" y="27" type="line"/>
      <point x="487" y="27"/>
      <point x="485" y="30"/>
      <point x="486" y="37" type="curve" smooth="yes"/>
      <point x="489" y="59" type="line"/>
      <point x="526" y="59" type="line"/>
      <point x="532" y="102" type="line"/>
      <point x="495" y="102" type="line"/>
      <point x="519" y="274" type="line"/>
      <point x="453" y="274" type="line"/>
      <point x="248" y="98" type="line"/>
      <point x="243" y="59" type="line"/>
    </contour>
    <contour>
      <point x="398" y="188" type="line"/>
      <point x="390" y="197" type="line"/>
      <point x="377" y="102" type="line"/>
      <point x="277" y="102" type="line"/>
      <point x="281" y="90" type="line"/>
    </contour>
    <component base="fraction" xOffset="219"/>
    <component base="uni00B9" xOffset="19" yOffset="-71"/>
  </outline>
</glyph>
<glyph name="Thorn" format="1">
  <advance width="551"/>
  <unicode hex="00DE"/>
  <outline>
    <contour>
      <point x="89" y="597" type="line"/>
      <point x="85" y="567" type="line"/>
      <point x="119" y="569" type="line" smooth="yes"/>
      <point x="132" y="570"/>
      <point x="137" y="559"/>
      <point x="135" y="548" type="curve"/>
      <point x="65" y="49" type="line" smooth="yes"/>
      <point x="63" y="36"/>
      <point x="56" y="26"/>
      <point x="43" y="27" type="curve" smooth="yes"/>
      <point x="9" y="29" type="line"/>
      <point x="5" y="0" type="line"/>
      <point x="280" y="0" type="line"/>
      <point x="284" y="29" type="line"/>
      <point x="235" y="27" type="line" smooth="yes"/>
      <point x="220" y="26"/>
      <point x="216" y="36"/>
      <point x="218" y="49" type="curve" smooth="yes"/>
      <point x="234" y="162" type="line"/>
      <point x="327" y="162" type="line" smooth="yes"/>
      <point x="465" y="162"/>
      <point x="549" y="231"/>
      <point x="549" y="364" type="curve" smooth="yes"/>
      <point x="549" y="462"/>
      <point x="485" y="496"/>
      <point x="353" y="496" type="curve" smooth="yes"/>
      <point x="281" y="496" type="line"/>
      <point x="288" y="548" type="line"/>
      <point x="290" y="559"/>
      <point x="299" y="569"/>
      <point x="311" y="569" type="curve"/>
      <point x="360" y="567" type="line"/>
      <point x="364" y="597" type="line"/>
    </contour>
    <contour>
      <point x="365" y="471"/>
      <point x="393" y="435"/>
      <point x="393" y="366" type="curve" smooth="yes"/>
      <point x="393" y="259"/>
      <point x="342" y="188"/>
      <point x="289" y="188" type="curve" smooth="yes"/>
      <point x="250" y="188" type="line" smooth="yes"/>
      <point x="243" y="188"/>
      <point x="238" y="194"/>
      <point x="239" y="201" type="curve" smooth="yes"/>
      <point x="277" y="471" type="line"/>
      <point x="313" y="471" type="line" smooth="yes"/>
    </contour>
  </outline>
</glyph>
<glyph name="eth" format="1">
  <advance width="466"/>
  <unicode hex="00F0"/>
  <outline>
    <contour>
      <point x="279" y="573" type="line"/>
      <point x="233" y="594"/>
      <point x="183" y="605"/>
      <point x="133" y="607" type="curve"/>
      <point x="109" y="575" type="line"/>
      <point x="137" y="571"/>
      <point x="172" y="557"/>
      <point x="204" y="534" type="curve"/>
      <point x="109" y="483" type="line"/>
      <point x="123" y="452" type="line"/>
      <point x="232" y="510" type="line"/>
      <point x="259" y="483"/>
      <point x="282" y="449"/>
      <point x="292" y="407" type="curve"/>
      <point x="336" y="416" type="line"/>
      <point x="325" y="427"/>
      <point x="296" y="437"/>
      <point x="278" y="437" type="curve" smooth="yes"/>
      <point x="102" y="437"/>
      <point x="15" y="302"/>
      <point x="15" y="159" type="curve" smooth="yes"/>
      <point x="15" y="64"/>
      <point x="65" y="-10"/>
      <point x="180" y="-10" type="curve" smooth="yes"/>
      <point x="364" y="-10"/>
      <point x="451" y="125"/>
      <point x="451" y="268" type="curve" smooth="yes"/>
      <point x="451" y="411"/>
      <point x="393" y="502"/>
      <point x="314" y="554" type="curve"/>
      <point x="380" y="589" type="line"/>
      <point x="367" y="620" type="line"/>
    </contour>
    <contour>
      <point x="289" y="391"/>
      <point x="306" y="366"/>
      <point x="306" y="299" type="curve" smooth="yes"/>
      <point x="306" y="254"/>
      <point x="299" y="199"/>
      <point x="287" y="152" type="curve" smooth="yes"/>
      <point x="271" y="89"/>
      <point x="247" y="36"/>
      <point x="203" y="36" type="curve" smooth="yes"/>
      <point x="177" y="36"/>
      <point x="160" y="61"/>
      <point x="160" y="128" type="curve" smooth="yes"/>
      <point x="160" y="173"/>
      <point x="167" y="228"/>
      <point x="179" y="275" type="curve" smooth="yes"/>
      <point x="195" y="338"/>
      <point x="219" y="391"/>
      <point x="263" y="391" type="curve" smooth="yes"/>
    </contour>
  </outline>
</glyph>
<glyph name="ldot" format="1">
  <advance width="326"/>
  <unicode hex="0140"/>
  <outline>
    <contour>
      <point x="226" y="297"/>
      <point x="245" y="274"/>
      <point x="271" y="274" type="curve" smooth="yes"/>
      <point x="308" y="274"/>
      <point x="332" y="302"/>
      <point x="332" y="344" type="curve" smooth="yes"/>
      <point x="332" y="376"/>
      <point x="314" y="399"/>
      <point x="287" y="399" type="curve" smooth="yes"/>
      <point x="250" y="399"/>
      <point x="226" y="371"/>
      <point x="226" y="329" type="curve" smooth="yes"/>
    </contour>
    <component base="l"/>
  </outline>
</glyph>
<glyph name="Lslash" format="1">
  <advance width="498"/>
  <unicode hex="0141"/>
  <outline>
    <contour>
      <point x="121" y="275" type="line"/>
      <point x="49" y="220" type="line"/>
      <point x="42" y="173" type="line"/>
      <point x="114" y="228" type="line"/>
    </contour>
    <contour>
      <point x="199" y="288" type="line"/>
      <point x="314" y="377" type="line"/>
      <point x="321" y="425" type="line"/>
      <point x="205" y="336" type="line"/>
    </contour>
    <component base="L"/>
  </outline>
</glyph>
<glyph name="OE" format="1">
  <advance width="904"/>
  <unicode hex="0152"/>
  <outline>
    <contour>
      <point x="174" y="607"/>
      <point x="35" y="460"/>
      <point x="35" y="258" type="curve" smooth="yes"/>
      <point x="35" y="79"/>
      <point x="134" y="-10"/>
      <point x="313" y="-10" type="curve" smooth="yes"/>
      <point x="347" y="-10"/>
      <point x="378" y="-6"/>
      <point x="408" y="0" type="curve"/>
      <point x="732" y="0" type="line" smooth="yes"/>
      <point x="775" y="0"/>
      <point x="815" y="-1"/>
      <point x="830" y="-3" type="curve"/>
      <point x="855" y="179" type="line"/>
      <point x="818" y="179" type="line"/>
      <point x="805" y="88"/>
      <point x="750" y="38"/>
      <point x="659" y="38" type="curve" smooth="yes"/>
      <point x="559" y="38" type="line" smooth="yes"/>
      <point x="551" y="38"/>
      <point x="548" y="42"/>
      <point x="549" y="51" type="curve" smooth="yes"/>
      <point x="582" y="287" type="line"/>
      <point x="646" y="287" type="line" smooth="yes"/>
      <point x="687" y="287"/>
      <point x="716" y="245"/>
      <point x="709" y="190" type="curve"/>
      <point x="746" y="190" type="line"/>
      <point x="779" y="426" type="line"/>
      <point x="742" y="426" type="line"/>
      <point x="733" y="362"/>
      <point x="696" y="325"/>
      <point x="652" y="325" type="curve" smooth="yes"/>
      <point x="588" y="325" type="line"/>
      <point x="619" y="545" type="line" smooth="yes"/>
      <point x="620" y="554"/>
      <point x="625" y="559"/>
      <point x="633" y="559" type="curve" smooth="yes"/>
      <point x="700" y="559" type="line" smooth="yes"/>
      <point x="799" y="559"/>
      <point x="837" y="525"/>
      <point x="825" y="443" type="curve"/>
      <point x="862" y="443" type="line"/>
      <point x="884" y="598" type="line"/>
      <point x="499" y="598" type="line"/>
      <point x="470" y="598"/>
      <point x="432" y="607"/>
      <point x="397" y="607" type="curve" smooth="yes"/>
    </contour>
    <contour>
      <point x="451" y="570"/>
      <point x="462" y="549"/>
      <point x="464" y="530" type="curve"/>
      <point x="399" y="74" type="line"/>
      <point x="386" y="48"/>
      <point x="364" y="27"/>
      <point x="321" y="27" type="curve" smooth="yes"/>
      <point x="219" y="27"/>
      <point x="198" y="101"/>
      <point x="197" y="179" type="curve"/>
      <point x="197" y="243"/>
      <point x="206" y="338"/>
      <point x="230" y="419" type="curve" smooth="yes"/>
      <point x="255" y="503"/>
      <point x="295" y="570"/>
      <point x="392" y="570" type="curve" smooth="yes"/>
    </contour>
    <contour>
      <point x="474" y="598" type="move" name="top"/>
    </contour>
  </outline>
</glyph>
<glyph name="dotlessj" format="1">
  <advance width="270"/>
  <unicode hex="0237"/>
  <outline>
    <contour>
      <point x="145" y="433"/>
      <point x="87" y="423"/>
      <point x="32" y="407" type="curve"/>
      <point x="37" y="368" type="line"/>
      <point x="41" y="369"/>
      <point x="48" y="370"/>
      <point x="53" y="370" type="curve" smooth="yes"/>
      <point x="67" y="370"/>
      <point x="83" y="367"/>
      <point x="83" y="345" type="curve" smooth="yes"/>
      <point x="83" y="323"/>
      <point x="77" y="285"/>
      <point x="68" y="223" type="curve" smooth="yes"/>
      <point x="40" y="24" type="line"/>
      <point x="19" y="-171"/>
      <point x="13" y="-208"/>
      <point x="-20" y="-208" type="curve" smooth="yes"/>
      <point x="-31" y="-208"/>
      <point x="-47" y="-203"/>
      <point x="-47" y="-177" type="curve" smooth="yes"/>
      <point x="-47" y="-150"/>
      <point x="-30" y="-138"/>
      <point x="-30" y="-116" type="curve" smooth="yes"/>
      <point x="-30" y="-90"/>
      <point x="-53" y="-77"/>
      <point x="-84" y="-77" type="curve" smooth="yes"/>
      <point x="-139" y="-77"/>
      <point x="-164" y="-117"/>
      <point x="-164" y="-152" type="curve" smooth="yes"/>
      <point x="-164" y="-204"/>
      <point x="-108" y="-245"/>
      <point x="-34" y="-245" type="curve" smooth="yes"/>
      <point x="97" y="-245"/>
      <point x="169" y="-97"/>
      <point x="193" y="93" type="curve" smooth="yes"/>
      <point x="215" y="269"/>
      <point x="237" y="376"/>
      <point x="237" y="401" type="curve" smooth="yes"/>
      <point x="237" y="429"/>
      <point x="217" y="433"/>
      <point x="193" y="433" type="curve" smooth="yes"/>
    </contour>
    <contour>
      <point x="157" y="420" type="move" name="top"/>
    </contour>
  </outline>
</glyph>
<glyph name="caron" format="1">
  <advance width="365"/>
  <unicode hex="02C7"/>
  <outline>
    <contour>
      <point x="374" y="657"/>
      <point x="360" y="650"/>
      <point x="352" y="645" type="curve"/>
      <point x="234" y="581" type="line"/>
      <point x="134" y="645" type="line" smooth="yes"/>
      <point x="126" y="650"/>
      <point x="114" y="657"/>
      <point x="101" y="657" type="curve" smooth="yes"/>
      <point x="89" y="657"/>
      <point x="87" y="651"/>
      <point x="87" y="648" type="curve" smooth="yes"/>
      <point x="87" y="638"/>
      <point x="117" y="610"/>
      <point x="150" y="564" type="curve"/>
      <point x="191" y="516" type="line"/>
      <point x="199" y="506"/>
      <point x="210" y="501"/>
      <point x="222" y="501" type="curve" smooth="yes"/>
      <point x="234" y="501"/>
      <point x="247" y="506"/>
      <point x="259" y="516" type="curve" smooth="yes"/>
      <point x="312" y="564" type="line" smooth="yes"/>
      <point x="361" y="612"/>
      <point x="399" y="640"/>
      <point x="399" y="650" type="curve" smooth="yes"/>
      <point x="399" y="653"/>
      <point x="397" y="657"/>
      <point x="388" y="657" type="curve" smooth="yes"/>
    </contour>
    <contour>
      <point x="213" y="420" type="move" name="_top"/>
    </contour>
  </outline>
</glyph>
<glyph name="dotaccent" format="1">
  <advance width="170"/>
  <unicode hex="02D9"/>
  <outline>
    <contour>
      <point x="94" y="661"/>
      <point x="53" y="631"/>
      <point x="53" y="584" type="curve" smooth="yes"/>
      <point x="53" y="549"/>
      <point x="83" y="526"/>
      <point x="129" y="526" type="curve" smooth="yes"/>
      <point x="183" y="526"/>
      <point x="224" y="555"/>
      <point x="224" y="604" type="curve" smooth="yes"/>
      <point x="224" y="639"/>
      <point x="193" y="661"/>
      <point x="147" y="661" type="curve" smooth="yes"/>
    </contour>
    <contour>
      <point x="117" y="420" type="move" name="_top"/>
    </contour>
  </outline>
</glyph>
<glyph name="ring" format="1">
  <advance width="229"/>
  <unicode hex="02DA"/>
  <outline>
    <contour>
      <point x="76" y="521"/>
      <point x="106" y="491"/>
      <point x="153" y="491" type="curve" smooth="yes"/>
      <point x="210" y="491"/>
      <point x="255" y="531"/>
      <point x="255" y="586" type="curve" smooth="yes"/>
      <point x="255" y="628"/>
      <point x="224" y="658"/>
      <point x="176" y="658" type="curve" smooth="yes"/>
      <point x="122" y="658"/>
      <point x="76" y="617"/>
      <point x="76" y="564" type="curve" smooth="yes"/>
    </contour>
    <contour>
      <point x="128" y="596"/>
      <point x="146" y="615"/>
      <point x="170" y="615" type="curve" smooth="yes"/>
      <point x="190" y="615"/>
      <point x="202" y="601"/>
      <point x="202" y="581" type="curve" smooth="yes"/>
      <point x="202" y="553"/>
      <point x="184" y="534"/>
      <point x="159" y="534" type="curve" smooth="yes"/>
      <point x="140" y="534"/>
      <point x="128" y="547"/>
      <point x="128" y="568" type="curve" smooth="yes"/>
    </contour>
    <contour>
      <point x="144" y="420" type="move" name="_top"/>
    </contour>
  </outline>
</glyph>
<glyph name="ogonek" format="1">
  <advance width="233"/>
  <unicode hex="02DB"/>
  <outline>
    <contour>
      <point x="59" y="14" type="line"/>
      <point x="0" y="-12"/>
      <point x="-31" y="-54"/>
      <point x="-31" y="-96" type="curve" smooth="yes"/>
      <point x="-31" y="-138"/>
      <point x="5" y="-159"/>
      <point x="44" y="-159" type="curve" smooth="yes"/>
      <point x="87" y="-159"/>
      <point x="132" y="-137"/>
      <point x="170" y="-99" type="curve"/>
      <point x="161" y="-77" type="line"/>
      <point x="137" y="-89"/>
      <point x="113" y="-96"/>
      <point x="89" y="-96" type="curve" smooth="yes"/>
      <point x="59" y="-96"/>
      <point x="46" y="-79"/>
      <point x="46" y="-58" type="curve" smooth="yes"/>
      <point x="46" y="-28"/>
      <point x="65" y="-1"/>
      <point x="97" y="14" type="curve"/>
    </contour>
    <contour>
      <point x="97" y="14" type="move" name="_ogonek"/>
    </contour>
  </outline>
</glyph>
<glyph name="tilde" format="1">
  <advance width="285"/>
  <unicode hex="02DC"/>
  <outline>
    <contour>
      <point x="106" y="626"/>
      <point x="83" y="584"/>
      <point x="75" y="525" type="curve"/>
      <point x="105" y="525" type="line"/>
      <point x="108" y="548"/>
      <point x="124" y="562"/>
      <point x="143" y="562" type="curve" smooth="yes"/>
      <point x="181" y="562"/>
      <point x="246" y="524"/>
      <point x="297" y="524" type="curve" smooth="yes"/>
      <point x="344" y="524"/>
      <point x="367" y="566"/>
      <point x="375" y="625" type="curve"/>
      <point x="345" y="625" type="line"/>
      <point x="342" y="602"/>
      <point x="326" y="588"/>
      <point x="307" y="588" type="curve" smooth="yes"/>
      <point x="270" y="588"/>
      <point x="203" y="626"/>
      <point x="153" y="626" type="curve" smooth="yes"/>
    </contour>
    <contour>
      <point x="207" y="420" type="move" name="_top"/>
    </contour>
  </outline>
</glyph>
<glyph name="Delta" format="1">
  <advance width="612"/>
  <unicode hex="0394"/>
  <outline>
    <contour>
      <point x="327" y="607" type="line"/>
      <point x="-13" y="0" type="line"/>
      <point x="552" y="0" type="line"/>
      <point x="383" y="607" type="line"/>
    </contour>
    <contour>
      <point x="265" y="462" type="line"/>
      <point x="389" y="14" type="line"/>
      <point x="405" y="38" type="line"/>
      <point x="19" y="38" type="line"/>
      <point x="34" y="15" type="line"/>
      <point x="283" y="462" type="line"/>
    </contour>
  </outline>
</glyph>
<glyph name="mu" format="1">
  <advance width="581"/>
  <unicode hex="03BC"/>
  <outline>
    <contour>
      <point x="75" y="427" type="line"/>
      <point x="70" y="391" type="line"/>
      <point x="102" y="393" type="line"/>
      <point x="111" y="393"/>
      <point x="114" y="387"/>
      <point x="113" y="374" type="curve"/>
      <point x="34" y="-185" type="line" smooth="yes"/>
      <point x="32" y="-198"/>
      <point x="27" y="-204"/>
      <point x="18" y="-205" type="curve"/>
      <point x="-10" y="-203" type="line"/>
      <point x="-15" y="-239" type="line"/>
      <point x="247" y="-239" type="line"/>
      <point x="252" y="-203" type="line"/>
      <point x="190" y="-205" type="line" smooth="yes"/>
      <point x="178" y="-205"/>
      <point x="179" y="-192"/>
      <point x="180" y="-185" type="curve"/>
      <point x="266" y="427" type="line"/>
    </contour>
    <contour>
      <point x="380" y="301" type="line"/>
      <point x="367" y="226"/>
      <point x="298" y="95"/>
      <point x="248" y="95" type="curve" smooth="yes"/>
      <point x="231" y="95"/>
      <point x="224" y="108"/>
      <point x="224" y="120" type="curve" smooth="yes"/>
      <point x="224" y="125"/>
      <point x="225" y="136"/>
      <point x="226" y="143" type="curve"/>
      <point x="85" y="70" type="line"/>
      <point x="85" y="26"/>
      <point x="111" y="-10"/>
      <point x="167" y="-10" type="curve" smooth="yes"/>
      <point x="233" y="-10"/>
      <point x="297" y="40"/>
      <point x="376" y="191" type="curve"/>
      <point x="394" y="327" type="line"/>
    </contour>
    <contour>
      <point x="398" y="418" type="line"/>
      <point x="366" y="208" type="line" smooth="yes"/>
      <point x="356" y="134"/>
      <point x="345" y="69"/>
      <point x="345" y="36" type="curve" smooth="yes"/>
      <point x="345" y="5"/>
      <point x="352" y="-10"/>
      <point x="379" y="-10" type="curve" smooth="yes"/>
      <point x="421" y="-10"/>
      <point x="485" y="7"/>
      <point x="554" y="60" type="curve"/>
      <point x="543" y="90" type="line"/>
      <point x="526" y="79"/>
      <point x="513" y="77"/>
      <point x="505" y="77" type="curve" smooth="yes"/>
      <point x="496" y="77"/>
      <point x="492" y="83"/>
      <point x="492" y="94" type="curve" smooth="yes"/>
      <point x="492" y="136"/>
      <point x="511" y="231"/>
      <point x="550" y="435" type="curve"/>
    </contour>
  </outline>
</glyph>
<glyph name="pi" format="1">
  <advance width="623"/>
  <unicode hex="03C0"/>
  <outline>
    <contour>
      <point x="235" y="378" type="line"/>
      <point x="221" y="322"/>
      <point x="193" y="224"/>
      <point x="170" y="153" type="curve" smooth="yes"/>
      <point x="157" y="117"/>
      <point x="152" y="97"/>
      <point x="123" y="97" type="curve" smooth="yes"/>
      <point x="102" y="97"/>
      <point x="90" y="122"/>
      <point x="64" y="122" type="curve" smooth="yes"/>
      <point x="30" y="122"/>
      <point x="0" y="88"/>
      <point x="0" y="47" type="curve" smooth="yes"/>
      <point x="0" y="9"/>
      <point x="33" y="-10"/>
      <point x="57" y="-10" type="curve" smooth="yes"/>
      <point x="155" y="-10"/>
      <point x="192" y="84"/>
      <point x="211" y="144" type="curve" smooth="yes"/>
      <point x="236" y="219"/>
      <point x="266" y="320"/>
      <point x="278" y="378" type="curve"/>
    </contour>
    <contour>
      <point x="384" y="365" type="line"/>
      <point x="361" y="288"/>
      <point x="324" y="145"/>
      <point x="324" y="93" type="curve" smooth="yes"/>
      <point x="324" y="41"/>
      <point x="350" y="-6"/>
      <point x="436" y="-6" type="curve" smooth="yes"/>
      <point x="494" y="-6"/>
      <point x="530" y="9"/>
      <point x="567" y="50" type="curve"/>
      <point x="547" y="64" type="line"/>
      <point x="529" y="46"/>
      <point x="512" y="33"/>
      <point x="490" y="33" type="curve" smooth="yes"/>
      <point x="467" y="33"/>
      <point x="460" y="54"/>
      <point x="460" y="87" type="curve" smooth="yes"/>
      <point x="460" y="138"/>
      <point x="485" y="248"/>
      <point x="508" y="365" type="curve"/>
    </contour>
    <contour>
      <point x="601" y="433"/>
      <point x="591" y="420"/>
      <point x="555" y="420" type="curve" smooth="yes"/>
      <point x="490" y="420"/>
      <point x="329" y="430"/>
      <point x="220" y="430" type="curve" smooth="yes"/>
      <point x="161" y="430"/>
      <point x="96" y="399"/>
      <point x="40" y="282" type="curve"/>
      <point x="66" y="270" type="line"/>
      <point x="100" y="312"/>
      <point x="139" y="325"/>
      <point x="192" y="325" type="curve" smooth="yes"/>
      <point x="305" y="325"/>
      <point x="444" y="315"/>
      <point x="535" y="315" type="curve" smooth="yes"/>
      <point x="580" y="315" type="line" smooth="yes"/>
      <point x="595" y="315"/>
      <point x="604" y="314"/>
      <point x="610" y="313" type="curve"/>
      <point x="613" y="332" type="line" smooth="yes"/>
      <point x="616" y="356"/>
      <point x="623" y="393"/>
      <point x="647" y="458" type="curve"/>
      <point x="615" y="463" type="line"/>
    </contour>
  </outline>
</glyph>
<glyph name="daggerdbl" format="1">
  <advance width="530"/>
  <unicode hex="2021"/>
  <outline>
    <contour>
      <point x="395" y="468"/>
      <point x="400" y="416"/>
      <point x="292" y="416" type="curve" smooth="yes"/>
      <point x="284" y="416" type="line" smooth="yes"/>
      <point x="178" y="416"/>
      <point x="192" y="468"/>
      <point x="127" y="468" type="curve" smooth="yes"/>
      <point x="90" y="468"/>
      <point x="61" y="440"/>
      <point x="61" y="391" type="curve" smooth="yes"/>
      <point x="61" y="367"/>
      <point x="71" y="348"/>
      <point x="97" y="348" type="curve" smooth="yes"/>
      <point x="133" y="348"/>
      <point x="137" y="387"/>
      <point x="164" y="387" type="curve" smooth="yes"/>
      <point x="184" y="387"/>
      <point x="186" y="370"/>
      <point x="207" y="370" type="curve" smooth="yes"/>
      <point x="228" y="370"/>
      <point x="250" y="377"/>
      <point x="281" y="403" type="curve"/>
      <point x="293" y="403" type="line"/>
      <point x="316" y="377"/>
      <point x="336" y="370"/>
      <point x="357" y="370" type="curve" smooth="yes"/>
      <point x="378" y="370"/>
      <point x="384" y="387"/>
      <point x="406" y="387" type="curve" smooth="yes"/>
      <point x="432" y="387"/>
      <point x="424" y="348"/>
      <point x="462" y="348" type="curve" smooth="yes"/>
      <point x="498" y="348"/>
      <point x="512" y="382"/>
      <point x="512" y="414" type="curve" smooth="yes"/>
      <point x="512" y="449"/>
      <point x="493" y="468"/>
      <point x="465" y="468" type="curve" smooth="yes"/>
    </contour>
    <contour>
      <point x="224" y="98" type="line"/>
      <point x="197" y="52"/>
      <point x="172" y="26"/>
      <point x="172" y="18" type="curve" smooth="yes"/>
      <point x="172" y="-4"/>
      <point x="198" y="-6"/>
      <point x="198" y="-24" type="curve" smooth="yes"/>
      <point x="198" y="-31"/>
      <point x="139" y="-50"/>
      <point x="139" y="-92" type="curve" smooth="yes"/>
      <point x="139" y="-123"/>
      <point x="166" y="-152"/>
      <point x="208" y="-152" type="curve" smooth="yes"/>
      <point x="256" y="-152"/>
      <point x="296" y="-116"/>
      <point x="296" y="-82" type="curve" smooth="yes"/>
      <point x="296" y="-50"/>
      <point x="254" y="-52"/>
      <point x="254" y="-28" type="curve" smooth="yes"/>
      <point x="254" y="-7"/>
      <point x="293" y="-6"/>
      <point x="293" y="27" type="curve" smooth="yes"/>
      <point x="293" y="51"/>
      <point x="275" y="56"/>
      <point x="262" y="98" type="curve"/>
    </contour>
    <contour>
      <point x="395" y="140"/>
      <point x="391" y="101"/>
      <point x="364" y="101" type="curve" smooth="yes"/>
      <point x="344" y="101"/>
      <point x="342" y="118"/>
      <point x="321" y="118" type="curve" smooth="yes"/>
      <point x="300" y="118"/>
      <point x="278" y="111"/>
      <point x="247" y="85" type="curve"/>
      <point x="235" y="85" type="line"/>
      <point x="212" y="111"/>
      <point x="192" y="118"/>
      <point x="171" y="118" type="curve" smooth="yes"/>
      <point x="150" y="118"/>
      <point x="144" y="101"/>
      <point x="122" y="101" type="curve" smooth="yes"/>
      <point x="96" y="101"/>
      <point x="104" y="140"/>
      <point x="66" y="140" type="curve" smooth="yes"/>
      <point x="30" y="140"/>
      <point x="16" y="106"/>
      <point x="16" y="74" type="curve" smooth="yes"/>
      <point x="16" y="39"/>
      <point x="35" y="20"/>
      <point x="63" y="20" type="curve" smooth="yes"/>
      <point x="133" y="20"/>
      <point x="128" y="72"/>
      <point x="236" y="72" type="curve" smooth="yes"/>
      <point x="244" y="72" type="line" smooth="yes"/>
      <point x="350" y="72"/>
      <point x="336" y="20"/>
      <point x="401" y="20" type="curve" smooth="yes"/>
      <point x="438" y="20"/>
      <point x="467" y="48"/>
      <point x="467" y="97" type="curve" smooth="yes"/>
      <point x="467" y="121"/>
      <point x="457" y="140"/>
      <point x="431" y="140" type="curve" smooth="yes"/>
    </contour>
    <contour>
      <point x="222" y="244" type="line"/>
      <point x="203" y="228"/>
      <point x="186" y="204"/>
      <point x="186" y="185" type="curve" smooth="yes"/>
      <point x="186" y="153"/>
      <point x="225" y="145"/>
      <point x="225" y="107" type="curve" smooth="yes"/>
      <point x="225" y="104"/>
      <point x="225" y="102"/>
      <point x="224" y="98" type="curve"/>
      <point x="262" y="98" type="line"/>
      <point x="269" y="149"/>
      <point x="326" y="152"/>
      <point x="326" y="194" type="curve" smooth="yes"/>
      <point x="326" y="210"/>
      <point x="317" y="231"/>
      <point x="306" y="244" type="curve"/>
    </contour>
    <contour>
      <point x="266" y="390" type="line"/>
      <point x="259" y="339"/>
      <point x="202" y="336"/>
      <point x="202" y="294" type="curve" smooth="yes"/>
      <point x="202" y="278"/>
      <point x="211" y="257"/>
      <point x="222" y="244" type="curve"/>
      <point x="306" y="244" type="line"/>
      <point x="325" y="260"/>
      <point x="342" y="284"/>
      <point x="342" y="303" type="curve" smooth="yes"/>
      <point x="342" y="335"/>
      <point x="303" y="343"/>
      <point x="303" y="381" type="curve" smooth="yes"/>
      <point x="303" y="384"/>
      <point x="303" y="386"/>
      <point x="304" y="390" type="curve"/>
    </contour>
    <contour>
      <point x="272" y="640"/>
      <point x="232" y="604"/>
      <point x="232" y="570" type="curve" smooth="yes"/>
      <point x="232" y="538"/>
      <point x="274" y="540"/>
      <point x="274" y="516" type="curve" smooth="yes"/>
      <point x="274" y="495"/>
      <point x="235" y="494"/>
      <point x="235" y="461" type="curve" smooth="yes"/>
      <point x="235" y="437"/>
      <point x="253" y="432"/>
      <point x="266" y="390" type="curve"/>
      <point x="304" y="390" type="line"/>
      <point x="331" y="436"/>
      <point x="356" y="462"/>
      <point x="356" y="470" type="curve" smooth="yes"/>
      <point x="356" y="492"/>
      <point x="330" y="494"/>
      <point x="330" y="512" type="curve" smooth="yes"/>
      <point x="330" y="519"/>
      <point x="389" y="538"/>
      <point x="389" y="580" type="curve" smooth="yes"/>
      <point x="389" y="611"/>
      <point x="362" y="640"/>
      <point x="320" y="640" type="curve" smooth="yes"/>
    </contour>
  </outline>
</glyph>
<glyph name="bullet" format="1">
  <advance width="468"/>
  <unicode hex="2022"/>
  <outline>
    <contour>
      <point x="79" y="160"/>
      <point x="134" y="111"/>
      <point x="221" y="111" type="curve" smooth="yes"/>
      <point x="317" y="111"/>
      <point x="399" y="173"/>
      <point x="399" y="263" type="curve" smooth="yes"/>
      <point x="399" y="335"/>
      <point x="342" y="383"/>
      <point x="259" y="383" type="curve" smooth="yes"/>
      <point x="161" y="383"/>
      <point x="79" y="321"/>
      <point x="79" y="231" type="curve" smooth="yes"/>
    </contour>
  </outline>
</glyph>
<glyph name="perthousand" format="1">
  <advance width="991"/>
  <unicode hex="2030"/>
  <outline>
    <contour>
      <point x="369" y="269"/>
      <point x="300" y="201"/>
      <point x="300" y="110" type="curve" smooth="yes"/>
      <point x="300" y="43"/>
      <point x="344" y="-10"/>
      <point x="440" y="-10" type="curve" smooth="yes"/>
      <point x="558" y="-10"/>
      <point x="620" y="61"/>
      <point x="620" y="148" type="curve" smooth="yes"/>
      <point x="620" y="218"/>
      <point x="574" y="269"/>
      <point x="479" y="269" type="curve" smooth="yes"/>
    </contour>
    <contour>
      <point x="497" y="243"/>
      <point x="507" y="229"/>
      <point x="507" y="184" type="curve" smooth="yes"/>
      <point x="507" y="96"/>
      <point x="475" y="18"/>
      <point x="444" y="18" type="curve" smooth="yes"/>
      <point x="424" y="18"/>
      <point x="415" y="31"/>
      <point x="415" y="74" type="curve" smooth="yes"/>
      <point x="415" y="161"/>
      <point x="446" y="243"/>
      <point x="476" y="243" type="curve" smooth="yes"/>
    </contour>
    <contour>
      <point x="719" y="269"/>
      <point x="650" y="201"/>
      <point x="650" y="110" type="curve" smooth="yes"/>
      <point x="650" y="43"/>
      <point x="694" y="-10"/>
      <point x="790" y="-10" type="curve" smooth="yes"/>
      <point x="908" y="-10"/>
      <point x="970" y="61"/>
      <point x="970" y="148" type="curve" smooth="yes"/>
      <point x="970" y="218"/>
      <point x="924" y="269"/>
      <point x="829" y="269" type="curve" smooth="yes"/>
    </contour>
    <contour>
      <point x="847" y="243"/>
      <point x="857" y="229"/>
      <point x="857" y="184" type="curve" smooth="yes"/>
      <point x="857" y="96"/>
      <point x="825" y="18"/>
      <point x="794" y="18" type="curve" smooth="yes"/>
      <point x="774" y="18"/>
      <point x="765" y="31"/>
      <point x="765" y="74" type="curve" smooth="yes"/>
      <point x="765" y="161"/>
      <point x="796" y="243"/>
      <point x="826" y="243" type="curve" smooth="yes"/>
    </contour>
    <contour>
      <point x="114" y="608"/>
      <point x="45" y="540"/>
      <point x="45" y="449" type="curve" smooth="yes"/>
      <point x="45" y="382"/>
      <point x="89" y="329"/>
      <point x="185" y="329" type="curve" smooth="yes"/>
      <point x="302" y="329"/>
      <point x="365" y="400"/>
      <point x="365" y="487" type="curve" smooth="yes"/>
      <point x="365" y="557"/>
      <point x="319" y="608"/>
      <point x="224" y="608" type="curve" smooth="yes"/>
    </contour>
    <contour>
      <point x="242" y="582"/>
      <point x="251" y="568"/>
      <point x="251" y="523" type="curve" smooth="yes"/>
      <point x="251" y="435"/>
      <point x="220" y="357"/>
      <point x="189" y="357" type="curve" smooth="yes"/>
      <point x="168" y="357"/>
      <point x="159" y="370"/>
      <point x="159" y="413" type="curve" smooth="yes"/>
      <point x="159" y="500"/>
      <point x="190" y="582"/>
      <point x="220" y="582" type="curve" smooth="yes"/>
    </contour>
    <component base="fraction" xOffset="225"/>
  </outline>
</glyph>
<glyph name="fraction" format="1">
  <advance width="139"/>
  <unicode hex="2044"/>
  <outline>
    <contour>
      <point x="-167" y="24" type="line"/>
      <point x="-129" y="-9" type="line"/>
      <point x="376" y="580" type="line"/>
      <point x="336" y="610" type="line"/>
    </contour>
  </outline>
</glyph>
<glyph name="trademark" format="1">
  <advance width="778"/>
  <unicode hex="2122"/>
  <outline>
    <contour>
      <point x="598" y="439" type="line"/>
      <point x="551" y="597" type="line"/>
      <point x="400" y="597" type="line"/>
      <point x="396" y="570" type="line"/>
      <point x="424" y="572"/>
      <point x="422" y="569"/>
      <point x="420" y="556" type="curve" smooth="yes"/>
      <point x="391" y="345" type="line" smooth="yes"/>
      <point x="390" y="338"/>
      <point x="386" y="335"/>
      <point x="379" y="335" type="curve"/>
      <point x="360" y="336" type="line"/>
      <point x="357" y="310" type="line"/>
      <point x="449" y="310" type="line"/>
      <point x="452" y="336" type="line"/>
      <point x="424" y="336"/>
      <point x="420" y="333"/>
      <point x="420" y="342" type="curve" smooth="yes"/>
      <point x="420" y="352"/>
      <point x="432" y="432"/>
      <point x="450" y="563" type="curve"/>
      <point x="530" y="315" type="line"/>
      <point x="553" y="315" type="line"/>
      <point x="682" y="533" type="line"/>
      <point x="656" y="345" type="line" smooth="yes"/>
      <point x="655" y="338"/>
      <point x="650" y="335"/>
      <point x="644" y="335" type="curve" smooth="yes"/>
      <point x="619" y="335" type="line"/>
      <point x="616" y="310" type="line"/>
      <point x="782" y="310" type="line"/>
      <point x="785" y="336" type="line"/>
      <point x="771" y="335" type="line"/>
      <point x="766" y="334"/>
      <point x="763" y="337"/>
      <point x="763" y="342" type="curve" smooth="yes"/>
      <point x="763" y="342"/>
      <point x="775" y="430"/>
      <point x="793" y="562" type="curve"/>
      <point x="794" y="567"/>
      <point x="798" y="571"/>
      <point x="803" y="571" type="curve"/>
      <point x="815" y="570" type="line"/>
      <point x="819" y="597" type="line"/>
      <point x="691" y="597" type="line"/>
    </contour>
    <contour>
      <point x="62" y="597" type="line"/>
      <point x="52" y="523" type="line"/>
      <point x="76" y="523" type="line"/>
      <point x="82" y="556"/>
      <point x="101" y="572"/>
      <point x="145" y="572" type="curve" smooth="yes"/>
      <point x="150" y="572" type="line" smooth="yes"/>
      <point x="154" y="572"/>
      <point x="155" y="570"/>
      <point x="155" y="566" type="curve"/>
      <point x="124" y="347" type="line" smooth="yes"/>
      <point x="123" y="341"/>
      <point x="119" y="335"/>
      <point x="113" y="335" type="curve" smooth="yes"/>
      <point x="86" y="335" type="line"/>
      <point x="83" y="310" type="line"/>
      <point x="263" y="310" type="line"/>
      <point x="266" y="336" type="line"/>
      <point x="239" y="336" type="line"/>
      <point x="234" y="335"/>
      <point x="231" y="337"/>
      <point x="231" y="343" type="curve" smooth="yes"/>
      <point x="231" y="343"/>
      <point x="231" y="344"/>
      <point x="231" y="345" type="curve" smooth="yes"/>
      <point x="262" y="566" type="line"/>
      <point x="262" y="570"/>
      <point x="266" y="572"/>
      <point x="269" y="572" type="curve" smooth="yes"/>
      <point x="274" y="572" type="line" smooth="yes"/>
      <point x="319" y="572"/>
      <point x="333" y="556"/>
      <point x="329" y="523" type="curve"/>
      <point x="354" y="523" type="line"/>
      <point x="364" y="597" type="line"/>
    </contour>
  </outline>
</glyph>
<glyph name="product" format="1">
  <advance width="643"/>
  <unicode hex="220F"/>
  <outline>
    <contour>
      <point x="89" y="597" type="line"/>
      <point x="84" y="557" type="line"/>
      <point x="118" y="559" type="line" smooth="yes"/>
      <point x="133" y="560"/>
      <point x="136" y="549"/>
      <point x="134" y="538" type="curve"/>
      <point x="55" y="-21" type="line" smooth="yes"/>
      <point x="53" y="-36"/>
      <point x="46" y="-44"/>
      <point x="33" y="-43" type="curve" smooth="yes"/>
      <point x="-1" y="-41" type="line"/>
      <point x="-6" y="-80" type="line"/>
      <point x="244" y="-80" type="line"/>
      <point x="249" y="-41" type="line"/>
      <point x="225" y="-43" type="line" smooth="yes"/>
      <point x="212" y="-44"/>
      <point x="206" y="-36"/>
      <point x="208" y="-21" type="curve" smooth="yes"/>
      <point x="290" y="556" type="line"/>
      <point x="451" y="556" type="line"/>
      <point x="369" y="-21" type="line" smooth="yes"/>
      <point x="367" y="-36"/>
      <point x="360" y="-44"/>
      <point x="347" y="-43" type="curve" smooth="yes"/>
      <point x="323" y="-41" type="line"/>
      <point x="318" y="-80" type="line"/>
      <point x="567" y="-80" type="line"/>
      <point x="572" y="-41" type="line"/>
      <point x="538" y="-43" type="line" smooth="yes"/>
      <point x="525" y="-44"/>
      <point x="520" y="-36"/>
      <point x="522" y="-21" type="curve" smooth="yes"/>
      <point x="601" y="538" type="line" smooth="yes"/>
      <point x="603" y="550"/>
      <point x="610" y="560"/>
      <point x="623" y="559" type="curve" smooth="yes"/>
      <point x="657" y="557" type="line"/>
      <point x="662" y="597" type="line"/>
    </contour>
  </outline>
</glyph>
<glyph name="summation" format="1">
  <advance width="511"/>
  <unicode hex="2211"/>
  <outline>
    <contour>
      <point x="292" y="331" type="line"/>
      <point x="0" y="-55" type="line"/>
      <point x="78" y="-24" type="line"/>
      <point x="349" y="331" type="line"/>
    </contour>
    <contour>
      <point x="416" y="74" type="line"/>
      <point x="404" y="36"/>
      <point x="372" y="25"/>
      <point x="321" y="25" type="curve" smooth="yes"/>
      <point x="70" y="25" type="line"/>
      <point x="0" y="-55" type="line"/>
      <point x="-3" y="-80" type="line"/>
      <point x="313" y="-80" type="line" smooth="yes"/>
      <point x="365" y="-80"/>
      <point x="403" y="-80"/>
      <point x="413" y="-83" type="curve"/>
      <point x="417" y="-59"/>
      <point x="436" y="29"/>
      <point x="453" y="74" type="curve"/>
    </contour>
    <contour>
      <point x="95" y="537" type="line"/>
      <point x="232" y="198" type="line"/>
      <point x="349" y="331" type="line"/>
      <point x="256" y="579" type="line"/>
    </contour>
    <contour>
      <point x="508" y="597"/>
      <point x="469" y="597"/>
      <point x="416" y="597" type="curve" smooth="yes"/>
      <point x="103" y="597" type="line"/>
      <point x="95" y="537" type="line"/>
      <point x="197" y="559" type="line"/>
      <point x="392" y="559" type="line" smooth="yes"/>
      <point x="451" y="559"/>
      <point x="474" y="536"/>
      <point x="471" y="468" type="curve"/>
      <point x="511" y="468" type="line"/>
      <point x="513" y="507"/>
      <point x="517" y="580"/>
      <point x="520" y="600" type="curve"/>
    </contour>
  </outline>
</glyph>
<glyph name="integral" format="1">
  <advance width="519"/>
  <unicode hex="222B"/>
  <outline>
    <contour>
      <point x="324" y="779"/>
      <point x="241" y="653"/>
      <point x="218" y="494" type="curve" smooth="yes"/>
      <point x="200" y="363"/>
      <point x="190" y="98"/>
      <point x="183" y="52" type="curve" smooth="yes"/>
      <point x="166" y="-73"/>
      <point x="148" y="-126"/>
      <point x="120" y="-126" type="curve" smooth="yes"/>
      <point x="105" y="-126"/>
      <point x="100" y="-115"/>
      <point x="100" y="-101" type="curve" smooth="yes"/>
      <point x="100" y="-70"/>
      <point x="107" y="-15"/>
      <point x="50" y="-15" type="curve" smooth="yes"/>
      <point x="9" y="-15"/>
      <point x="-20" y="-46"/>
      <point x="-20" y="-86" type="curve" smooth="yes"/>
      <point x="-20" y="-132"/>
      <point x="30" y="-167"/>
      <point x="91" y="-167" type="curve" smooth="yes"/>
      <point x="223" y="-167"/>
      <point x="306" y="-41"/>
      <point x="329" y="118" type="curve" smooth="yes"/>
      <point x="344" y="229"/>
      <point x="354" y="494"/>
      <point x="364" y="560" type="curve" smooth="yes"/>
      <point x="381" y="685"/>
      <point x="399" y="738"/>
      <point x="427" y="738" type="curve" smooth="yes"/>
      <point x="443" y="738"/>
      <point x="447" y="728"/>
      <point x="447" y="713" type="curve" smooth="yes"/>
      <point x="447" y="682"/>
      <point x="440" y="627"/>
      <point x="497" y="627" type="curve" smooth="yes"/>
      <point x="538" y="627"/>
      <point x="567" y="662"/>
      <point x="567" y="698" type="curve" smooth="yes"/>
      <point x="567" y="747"/>
      <point x="516" y="779"/>
      <point x="456" y="779" type="curve" smooth="yes"/>
    </contour>
  </outline>
</glyph>
<glyph name="approxequal" format="1">
  <advance width="460"/>
  <unicode hex="2248"/>
  <outline>
    <contour>
      <point x="120" y="380"/>
      <point x="75" y="356"/>
      <point x="38" y="300" type="curve"/>
      <point x="67" y="268" type="line"/>
      <point x="104" y="313"/>
      <point x="123" y="322"/>
      <point x="156" y="322" type="curve" smooth="yes"/>
      <point x="211" y="322"/>
      <point x="274" y="257"/>
      <point x="331" y="257" type="curve" smooth="yes"/>
      <point x="375" y="257"/>
      <point x="420" y="287"/>
      <point x="456" y="335" type="curve"/>
      <point x="427" y="367" type="line"/>
      <point x="390" y="329"/>
      <point x="372" y="315"/>
      <point x="339" y="315" type="curve" smooth="yes"/>
      <point x="284" y="315"/>
      <point x="223" y="380"/>
      <point x="164" y="380" type="curve" smooth="yes"/>
    </contour>
    <contour>
      <point x="94" y="190"/>
      <point x="48" y="166"/>
      <point x="12" y="114" type="curve"/>
      <point x="40" y="78" type="line"/>
      <point x="77" y="123"/>
      <point x="97" y="132"/>
      <point x="130" y="132" type="curve" smooth="yes"/>
      <point x="185" y="132"/>
      <point x="247" y="67"/>
      <point x="304" y="67" type="curve" smooth="yes"/>
      <point x="348" y="67"/>
      <point x="394" y="97"/>
      <point x="429" y="145" type="curve"/>
      <point x="400" y="181" type="line"/>
      <point x="364" y="139"/>
      <point x="346" y="125"/>
      <point x="313" y="125" type="curve" smooth="yes"/>
      <point x="258" y="125"/>
      <point x="197" y="190"/>
      <point x="138" y="190" type="curve" smooth="yes"/>
    </contour>
  </outline>
</glyph>
<glyph name="notequal" format="1">
  <advance width="460"/>
  <unicode hex="2260"/>
  <outline>
    <contour>
      <point x="89" y="9" type="line"/>
      <point x="137" y="-5" type="line"/>
      <point x="355" y="444" type="line"/>
      <point x="308" y="456" type="line"/>
    </contour>
    <component base="equal"/>
  </outline>
</glyph>
<glyph name="greaterequal" format="1">
  <advance width="460"/>
  <unicode hex="2265"/>
  <outline>
    <contour>
      <point x="83" y="421" type="line"/>
      <point x="299" y="315" type="line"/>
      <point x="353" y="298" type="line"/>
      <point x="295" y="282" type="line"/>
      <point x="49" y="176" type="line"/>
      <point x="41" y="120" type="line"/>
      <point x="416" y="286" type="line"/>
      <point x="420" y="311" type="line"/>
      <point x="91" y="477" type="line"/>
    </contour>
    <contour>
      <point x="31" y="51" type="line"/>
      <point x="24" y="0" type="line"/>
      <point x="376" y="0" type="line"/>
      <point x="383" y="51" type="line"/>
    </contour>
  </outline>
</glyph>
<glyph name="f.ss05" format="1">
  <advance width="306"/>
  <outline>
    <contour>
      <point x="141" y="730"/>
      <point x="120" y="563"/>
      <point x="100" y="403" type="curve" smooth="yes"/>
      <point x="72" y="114"/>
      <point x="53" y="-47"/>
      <point x="17" y="-239" type="curve"/>
      <point x="171" y="-182" type="line"/>
      <point x="246" y="411" type="line" smooth="yes"/>
      <point x="265" y="582"/>
      <point x="221" y="561"/>
      <point x="239" y="649" type="curve" smooth="yes"/>
      <point x="244" y="673"/>
      <point x="253" y="693"/>
      <point x="273" y="693" type="curve" smooth="yes"/>
      <point x="284" y="693"/>
      <point x="292" y="687"/>
      <point x="292" y="677" type="curve" smooth="yes"/>
      <point x="292" y="654"/>
      <point x="275" y="639"/>
      <point x="275" y="619" type="curve" smooth="yes"/>
      <point x="275" y="597"/>
      <point x="296" y="581"/>
      <point x="330" y="581" type="curve" smooth="yes"/>
      <point x="377" y="581"/>
      <point x="396" y="615"/>
      <point x="396" y="642" type="curve" smooth="yes"/>
      <point x="396" y="689"/>
      <point x="352" y="730"/>
      <point x="289" y="730" type="curve" smooth="yes"/>
    </contour>
    <contour>
      <point x="49" y="430" type="line"/>
      <point x="34" y="389" type="line"/>
      <point x="113" y="389" type="line"/>
      <point x="121" y="430" type="line"/>
    </contour>
    <contour>
      <point x="245" y="430" type="line"/>
      <point x="239" y="389" type="line"/>
      <point x="317" y="389" type="line"/>
      <point x="335" y="405" type="line"/>
      <point x="335" y="430" type="line"/>
    </contour>
  </outline>
</glyph>
<glyph name="uniFB01.ss01" format="1">
  <advance width="588"/>
  <outline>
    <contour>
      <point x="233" y="700"/>
      <point x="114" y="555"/>
      <point x="101" y="403" type="curve" smooth="yes"/>
      <point x="83" y="189"/>
      <point x="56" y="-24"/>
      <point x="18" y="-238" type="curve"/>
      <point x="168" y="-183" type="line"/>
      <point x="247" y="411" type="line" smooth="yes"/>
      <point x="266" y="585"/>
      <point x="321" y="663"/>
      <point x="368" y="663" type="curve" smooth="yes"/>
      <point x="401" y="663"/>
      <point x="414" y="645"/>
      <point x="414" y="603" type="curve" smooth="yes"/>
      <point x="414" y="568"/>
      <point x="444" y="545"/>
      <point x="490" y="545" type="curve" smooth="yes"/>
      <point x="568" y="545"/>
      <point x="585" y="585"/>
      <point x="585" y="625" type="curve" smooth="yes"/>
      <point x="583" y="681"/>
      <point x="512" y="700"/>
      <point x="406" y="700" type="curve" smooth="yes"/>
    </contour>
    <contour>
      <point x="50" y="430" type="line"/>
      <point x="35" y="389" type="line"/>
      <point x="114" y="389" type="line"/>
      <point x="122" y="430" type="line"/>
    </contour>
    <contour>
      <point x="453" y="433"/>
      <point x="395" y="423"/>
      <point x="340" y="407" type="curve"/>
      <point x="345" y="368" type="line"/>
      <point x="349" y="369"/>
      <point x="356" y="370"/>
      <point x="361" y="370" type="curve" smooth="yes"/>
      <point x="375" y="370"/>
      <point x="391" y="367"/>
      <point x="391" y="345" type="curve" smooth="yes"/>
      <point x="391" y="323"/>
      <point x="387" y="283"/>
      <point x="379" y="223" type="curve" smooth="yes"/>
      <point x="368" y="146"/>
      <point x="353" y="68"/>
      <point x="353" y="36" type="curve" smooth="yes"/>
      <point x="353" y="5"/>
      <point x="374" y="-10"/>
      <point x="406" y="-10" type="curve" smooth="yes"/>
      <point x="447" y="-10"/>
      <point x="503" y="16"/>
      <point x="562" y="60" type="curve"/>
      <point x="551" y="90" type="line"/>
      <point x="534" y="79"/>
      <point x="520" y="77"/>
      <point x="515" y="77" type="curve" smooth="yes"/>
      <point x="499" y="77"/>
      <point x="498" y="93"/>
      <point x="498" y="104" type="curve" smooth="yes"/>
      <point x="498" y="126"/>
      <point x="504" y="177"/>
      <point x="513" y="230" type="curve" smooth="yes"/>
      <point x="527" y="310"/>
      <point x="545" y="386"/>
      <point x="545" y="401" type="curve" smooth="yes"/>
      <point x="545" y="429"/>
      <point x="525" y="433"/>
      <point x="501" y="433" type="curve" smooth="yes"/>
    </contour>
    <contour>
      <point x="246" y="430" type="line"/>
      <point x="240" y="389" type="line"/>
      <point x="298" y="389" type="line"/>
      <point x="316" y="405" type="line"/>
      <point x="316" y="430" type="line"/>
    </contour>
  </outline>
</glyph>
